<svg width="24" height="24" viewBox="0 0 24 24" fill="none" xmlns="http://www.w3.org/2000/svg">
<path d="M5.52659 13.337L5.56168 17.7335L6.76519 17.6808L6.78274 18.2844H5.03185L5.01431 13.3229L5.52659 13.337ZM8.82134 13.9054L7.63537 13.958V15.4843L8.64941 15.5545L8.63187 16.137L7.65292 16.0703L7.63537 17.6844L8.9231 17.7159L8.85643 18.3019L7.05291 18.2317L7.11958 13.3721L8.85643 13.337L8.82134 13.9054ZM10.9266 13.9054L9.74065 13.958V15.4843L10.7547 15.5545L10.7371 16.137L9.75819 16.0703L9.74065 17.6844L11.0284 17.7159L10.9617 18.3019L9.15819 18.2317L9.22485 13.3721L10.9617 13.337L10.9266 13.9054ZM12.3021 13.3721L14.1547 13.3054L14.1372 13.8352H13.4529L13.5021 18.2668L12.9547 18.2493L12.9372 13.8177L12.3372 13.8352L12.3021 13.3721Z" fill="#0899BE"/>
<path d="M13.8598 18.2668L14.5475 13.3229L15.0422 13.337L15.6948 18.2142L15.1299 18.2668L15.0422 17.4072L14.4948 17.4598L14.4422 18.2493L13.8598 18.2668ZM14.9755 16.8914L14.7685 15.3475L14.5475 16.944L14.9755 16.8914ZM16.5966 13.3229L16.8913 14.7615L17.2492 13.3229L17.7826 13.3054L17.2142 15.6738L17.7475 18.2668H17.1615L16.8668 16.8282L16.5089 18.2668L15.9755 18.2844L16.544 15.9159L16.0106 13.3229H16.5966ZM18.0878 13.3229L18.6352 13.337L18.6528 18.2493L18.1054 18.2668L18.0878 13.3229Z" fill="#0899BE"/>
<path d="M10.4502 3.11011V10.6301C10.4502 10.6301 10.5302 10.8901 10.6702 10.8901H12.5402L12.3102 10.3901C12.3102 10.3901 12.2502 10.1201 11.9802 10.1101H11.3302C11.3302 10.1101 11.1602 10.0501 11.1502 9.87011V7.57011H12.2202L12.0602 7.08011C12.0602 7.08011 11.9802 6.79011 11.6902 6.78011H11.3802C11.3802 6.78011 11.1902 6.76011 11.1702 6.59011V3.86011H12.6402L12.4802 3.39011C12.4802 3.39011 12.3502 3.10011 12.0402 3.12011L10.4602 3.14011" fill="#0899BE"/>
<path d="M14.5704 10.8901V3.37011C14.5704 3.37011 14.4904 3.11011 14.3504 3.11011H12.4804L12.7104 3.61011C12.7104 3.61011 12.7704 3.88011 13.0404 3.89011H13.6904C13.6904 3.89011 13.8604 3.95011 13.8704 4.13011V6.42011H12.8004L12.9604 6.91011C12.9604 6.91011 13.0404 7.20011 13.3304 7.21011H13.6404C13.6404 7.21011 13.8304 7.23011 13.8504 7.40011V10.1301H12.4004L12.5604 10.6001C12.5604 10.6001 12.6904 10.8901 13.0004 10.8701L14.5804 10.8501" fill="#0899BE"/>
<path d="M9.43018 3.11011V11.9101H13.8702C13.8702 11.9101 14.1802 12.0201 14.5702 11.2101H10.2002V3.42011C10.2002 3.42011 10.1702 3.13011 9.93018 3.11011H9.43018Z" fill="#0899BE"/>
</svg>
