<svg width="50" height="50" viewBox="0 0 50 50" fill="none" xmlns="http://www.w3.org/2000/svg">
<g id="deer 1" clip-path="url(#clip0_1_1753)">
<path id="Vector" d="M43.191 13.4285C40.5867 12.5996 35.5917 12.3192 31.7308 14.6156C31.3665 14.3517 30.9847 14.1102 30.5872 13.8935L34.6327 11.166L34.6918 11.1168C34.8062 11.0206 34.9047 10.9108 34.9901 10.7921C35.0389 10.7418 35.0862 10.6888 35.1286 10.6304L41.1719 2.32769C41.6479 1.67347 41.5037 0.757175 40.8495 0.280718C40.1953 -0.195358 39.279 -0.0511618 38.8025 0.603061L34.5694 6.41935L33.3185 1.12835C33.1324 0.34099 32.3435 -0.146529 31.5557 0.0396283C30.768 0.225786 30.2809 1.01505 30.467 1.80279L32.2283 9.25329L27.1139 12.7014C26.4631 12.5915 25.7932 12.5336 25.1089 12.5336C24.4241 12.5336 23.7543 12.5915 23.1035 12.7014L17.9891 9.25329L19.7507 1.80279C19.9369 1.01505 19.4494 0.225786 18.662 0.0396283C17.8743 -0.146529 17.085 0.34099 16.8989 1.12835L15.648 6.41935L11.4148 0.603061C10.9388 -0.0511618 10.0221 -0.195358 9.36824 0.280718C8.71402 0.757175 8.56944 1.67347 9.04552 2.32769L15.0888 10.6304C15.1315 10.6888 15.1784 10.7418 15.2276 10.7921C15.3127 10.9108 15.4111 11.0206 15.5256 11.1168L15.5847 11.166L19.6306 13.8939C19.227 14.1136 18.8398 14.3589 18.4705 14.6278C14.6066 12.3184 9.59941 12.5984 6.99092 13.4285C6.20127 13.6799 5.69811 14.4321 5.76792 15.258C5.82781 15.9718 6.11201 17.844 7.44677 19.8113C8.95549 22.0345 11.2653 23.6542 14.3197 24.6353C14.5536 26.2967 15.1513 27.9831 16.1104 29.6189C16.3205 29.9771 16.5185 30.325 16.7077 30.6649V41.5986C16.7077 46.2312 20.4763 50.0001 25.1089 50.0001C29.7415 50.0001 33.51 46.2312 33.51 41.5986V30.6645C33.6992 30.325 33.8972 29.9771 34.1074 29.6185C35.0687 27.9789 35.6668 26.2886 35.8995 24.6235C38.9353 23.6409 41.2325 22.0249 42.7351 19.8109C44.0699 17.844 44.3541 15.9714 44.4144 15.2576C44.4834 14.4321 43.9806 13.6799 43.191 13.4285ZM32.097 19.3096C33.56 21.8636 33.3712 25.0805 31.5794 28.1365C31.3177 28.5828 31.0751 29.012 30.8454 29.4274C30.7836 29.5155 30.731 29.6105 30.6894 29.7116C30.1557 30.6901 29.6991 31.5854 29.2814 32.4067C27.5026 35.9032 26.9098 36.9115 25.1089 36.9115C23.308 36.9115 22.7148 35.9036 20.936 32.4067C20.5183 31.5854 20.062 30.6901 19.528 29.7116C19.4864 29.6105 19.4337 29.5155 19.3719 29.4274C19.1423 29.0116 18.8997 28.5828 18.638 28.1365C16.8462 25.0809 16.6574 21.8636 18.1203 19.31C19.5001 16.9014 22.1124 15.4636 25.1089 15.4636C28.1049 15.4636 30.7173 16.9014 32.097 19.3096ZM9.8714 18.1656C9.32018 17.3534 9.02377 16.5703 8.86432 15.9752C10.9185 15.5819 13.8944 15.6517 16.2847 16.7812C16.0295 17.1211 15.7926 17.4782 15.5778 17.8532C14.9194 19.0025 14.5002 20.2389 14.3159 21.5222C12.3494 20.7424 10.8571 19.6182 9.8714 18.1656ZM25.1089 47.0696C22.0918 47.0696 19.6378 44.6153 19.6378 41.5986V36.2015C20.9348 38.408 22.3569 39.8419 25.1089 39.8419C27.8604 39.8419 29.2825 38.408 30.5795 36.2015V41.5986C30.5795 44.6153 28.1255 47.0696 25.1089 47.0696ZM40.3101 18.1656C39.3301 19.6102 37.8492 20.7295 35.8995 21.5084C35.7141 20.2301 35.2957 18.9984 34.6395 17.8532C34.4221 17.4736 34.1822 17.1124 33.9235 16.7687C36.3092 15.6509 39.2706 15.5834 41.3172 15.9752C41.1577 16.5703 40.8613 17.3534 40.3101 18.1656Z" fill="#F74F22"/>
</g>
<defs>
<clipPath id="clip0_1_1753">
<rect width="50" height="50" fill="white" transform="translate(-0.000244141)"/>
</clipPath>
</defs>
</svg>
