<svg width="50" height="50" viewBox="0 0 50 50" fill="none" xmlns="http://www.w3.org/2000/svg">
<g id="dove (1) 1" clip-path="url(#clip0_1_1742)">
<path id="Vector" d="M48.5352 15.6902H47.5729L45.2843 13.4012C43.1837 11.3008 39.7656 11.3011 37.6647 13.4013L33.0788 17.9875L21.6362 0.656856C21.0375 -0.24998 19.6894 -0.211113 19.1451 0.731661C19.1451 0.731661 17.8209 3.0258 16.0065 6.16779C15.3971 7.22287 14.8801 8.3258 14.4559 9.46066L2.11992 3.2927C1.14668 2.80598 0 3.51574 0 4.60285V10.8789C0 21.8823 8.10088 30.9245 18.5702 32.4963L3.56709 47.4994C3.14814 47.9184 3.02285 48.5485 3.24951 49.0958C3.47627 49.6432 4.01045 50.0001 4.60283 50.0001H14.0169C14.4055 50.0001 14.7779 49.8457 15.0526 49.571L20.8997 43.724H25.7845C36.5414 43.724 45.293 34.9726 45.293 24.2155V20.8997L47.5729 18.6197H48.5352C49.3441 18.6197 50 17.9639 50 17.1549C50 16.3459 49.3441 15.6902 48.5352 15.6902ZM18.5436 7.63303C19.3003 6.32268 19.9717 5.15969 20.4974 4.24914L28.6105 16.537L17.0904 10.777C17.4764 9.69133 17.9631 8.63781 18.5436 7.63303ZM42.7923 19.2571C42.5176 19.5319 42.3632 19.9044 42.3632 20.293V24.2155C42.3632 33.3571 34.926 40.7944 25.7844 40.7944H20.293C19.9045 40.7944 19.5319 40.9487 19.2572 41.2235L13.4102 47.0703H8.13936L22.8978 32.3118C23.3167 31.8929 23.442 31.2628 23.2153 30.7155C22.9886 30.1681 22.4544 29.8112 21.862 29.8112C11.4227 29.8113 2.92969 21.3182 2.92969 10.8789V6.97307L32.1899 21.6032C32.7539 21.8852 33.435 21.7747 33.8808 21.3288L39.7362 15.4731C40.6948 14.5147 42.2546 14.5149 43.2127 15.473L44.8946 17.1551L42.7923 19.2571Z" fill="#F74F22"/>
</g>
<defs>
<clipPath id="clip0_1_1742">
<rect width="50" height="50" fill="white"/>
</clipPath>
</defs>
</svg>
