<svg width="50" height="50" viewBox="0 0 50 50" fill="none" xmlns="http://www.w3.org/2000/svg">
<g id="elephant 1" clip-path="url(#clip0_1_1683)">
<path id="Vector" d="M41.213 17.5504C41.213 18.3591 40.5572 19.0149 39.7485 19.0149C38.9398 19.0149 38.2841 18.3591 38.2841 17.5504C38.2841 16.7417 38.9398 16.0859 39.7485 16.0859C40.5572 16.0859 41.213 16.7417 41.213 17.5504Z" fill="#F74F22"/>
<path id="Vector_2" d="M36.1787 4.37008H34.2447C34.231 4.36054 34.2172 4.351 34.2031 4.34147C32.3625 3.0727 28.9366 0.711791 24.04 2.27467C23.913 2.31549 22.0968 2.91172 20.2772 4.37008H19.0508C8.55315 4.37008 0.0128183 12.9104 0.0128183 23.408C0.0128183 23.4645 0.0105295 23.5351 0.00862215 23.6198C-0.0268545 25.0957 -0.13481 29.5867 3.7783 35.3564C5.14701 37.374 5.87027 39.8944 5.87066 42.6448V46.8394C5.87066 47.6481 6.52602 48.3039 7.33511 48.3039H13.2906C14.0993 48.3039 14.7551 47.6481 14.7551 46.8394V39.5171H20.6129V46.8394C20.6129 47.6481 21.2687 48.3039 22.0774 48.3039H28.0329C28.8416 48.3039 29.4973 47.6481 29.4973 46.8394C29.4973 41.1593 30.6604 36.0721 33.053 31.2861L34.717 27.959L37.5421 28.4301C39.6692 28.7845 41.213 30.6071 41.213 32.7636V35.1237C41.213 35.9313 40.5561 36.5882 39.7485 36.5882C39.3575 36.5882 38.9898 36.4356 38.7132 36.159C38.1418 35.5876 37.2137 35.5872 36.6422 36.159L32.5029 40.2984C31.9311 40.8702 31.9311 41.7975 32.5029 42.3693C34.9382 44.8054 38.4523 45.8766 41.9466 45.0762C46.5021 44.0333 49.9997 39.0895 49.9997 34.4897V18.1907C49.9997 10.5701 43.7997 4.37008 36.1787 4.37008ZM47.0708 34.4897C47.0708 37.9035 44.3708 41.5164 41.2927 42.2213C39.3034 42.6768 37.335 42.3163 35.7103 41.2329L37.8534 39.0899C38.4374 39.3699 39.0817 39.5171 39.7485 39.5171C42.1709 39.5171 44.1419 37.5464 44.1419 35.1237V32.764C44.1419 29.1698 41.5685 26.1321 38.0231 25.5412L34.1314 24.8927C33.497 24.7867 32.868 25.1071 32.5807 25.6824L30.4334 29.9769C28.0409 34.7621 26.7793 39.8131 26.5924 45.3753H23.5414V38.0526C23.5414 37.2439 22.8861 36.5882 22.077 36.5882H19.1442C20.0659 35.3637 20.6129 33.842 20.6129 32.1948C20.6129 31.3861 19.9572 30.7303 19.1484 30.7303C18.3397 30.7303 17.684 31.3861 17.684 32.1948C17.684 34.6175 15.7129 36.5882 13.2906 36.5882C12.4815 36.5882 11.8261 37.2439 11.8261 38.0526V45.3753H8.79957V42.6448C8.79919 39.3061 7.90121 36.2174 6.20253 33.7127C2.81585 28.7192 2.90702 24.9339 2.93678 23.6903C2.93945 23.5778 2.94174 23.4836 2.94174 23.4084C2.94174 14.9837 9.44197 8.04896 17.6905 7.35622C17.4379 7.80215 17.2148 8.2828 17.0317 8.79931C15.8049 12.2547 16.6857 16.3013 19.6486 20.827L23.781 27.1392C24.188 27.7614 24.9964 27.9792 25.6613 27.6469C28.7157 26.1195 30.7539 24.0066 31.7194 21.3664C32.5288 19.152 32.4312 17.0657 32.3599 15.5422C32.3431 15.1866 32.3286 14.8795 32.3286 14.6213C32.3286 13.8126 31.6728 13.1568 30.8641 13.1568C30.0554 13.1568 29.3997 13.8126 29.3997 14.6213C29.3997 14.9482 29.4164 15.3034 29.434 15.6795C29.5557 18.2735 29.7186 21.7529 25.485 24.3949L22.0991 19.2226C19.6657 15.5055 18.8887 12.3302 19.7901 9.78389C21.0012 6.36211 24.8918 5.0777 24.9308 5.0655C28.4586 3.9394 30.9152 5.63274 32.5411 6.7535C32.9916 7.06363 33.27 7.29938 33.793 7.29938H36.1791C42.185 7.29938 47.0708 12.1852 47.0708 18.1911V34.4897Z" fill="#F74F22"/>
</g>
<defs>
<clipPath id="clip0_1_1683">
<rect width="50" height="50" fill="white"/>
</clipPath>
</defs>
</svg>
