<svg width="50" height="50" viewBox="0 0 50 50" fill="none" xmlns="http://www.w3.org/2000/svg">
<g clip-path="url(#clip0_7_1052)">
<path d="M49.8423 26.1152C49.9916 25.7081 49.9524 25.2587 49.7346 24.8821C49.516 24.5042 49.1442 24.2451 48.7146 24.1711C43.5361 23.2807 39.6948 24.2119 38.2247 24.6776C37.6212 23.522 36.0892 20.9019 33.4235 18.2612C33.6988 17.6187 33.8277 16.92 33.7937 16.2152C33.734 14.9796 33.1967 13.8413 32.2809 13.0099C31.6382 12.4264 30.8633 12.0431 30.0312 11.887C30.3891 11.2064 30.5721 10.4429 30.5579 9.65268C30.5356 8.41599 30.0331 7.26185 29.1429 6.40311C27.7072 5.01808 25.6005 4.74748 23.9023 5.57129C23.9146 4.86136 23.7615 4.153 23.4455 3.49401C22.9108 2.37851 21.9738 1.53811 20.8071 1.12758C19.6402 0.716841 18.3833 0.78515 17.2679 1.31991C16.6089 1.6357 16.046 2.0921 15.6109 2.65322C14.803 0.947238 12.9914 -0.162593 11.0045 0.0194999C8.91092 0.209693 7.26594 1.7731 6.87901 3.73914C6.1322 3.33904 5.28692 3.15168 4.42036 3.20457C3.18572 3.27912 2.05384 3.82999 1.23354 4.75578C0.413241 5.68156 0.00250628 6.87142 0.0769635 8.10606C0.151421 9.3407 0.702384 10.4725 1.62817 11.2929C1.63715 11.3008 1.64632 11.3085 1.65549 11.3159L8.01422 16.4183C7.02461 16.8549 6.22959 17.6853 5.85398 18.7526C5.12112 20.8347 6.21885 23.1249 8.30102 23.8576L16.3203 26.68C16.7583 26.8341 17.2054 26.9072 17.6454 26.9072C19.297 26.9072 20.8468 25.8767 21.4253 24.2328C21.801 23.1654 21.7014 22.0203 21.2033 21.0601L27.0564 21.0636C26.1641 23.8909 25.9252 26.2348 25.8622 27.34C24.3304 27.5209 20.4463 28.2536 16.0936 31.1967C15.7326 31.4408 15.5004 31.83 15.4568 32.2643C15.4134 32.6972 15.5626 33.123 15.8663 33.4325C19.0155 36.6423 23.2325 38.1282 24.8997 38.6187C24.5794 40.1572 24.047 43.9774 25.2376 48.8787C25.3389 49.2957 25.6166 49.6464 25.9993 49.8409C26.2075 49.9467 26.4347 50 26.6624 50C26.8519 50 27.0418 49.963 27.2211 49.8887C32.0981 47.8699 34.8454 44.8063 35.8215 43.5509C37.1612 44.2581 40.6397 45.7987 45.5261 45.7984C45.7696 45.7984 46.0178 45.7946 46.2681 45.7866C46.6954 45.773 47.094 45.5737 47.362 45.24C47.6307 44.9053 47.7393 44.4714 47.6601 44.0497C46.7275 39.0927 44.6696 35.8303 43.7445 34.5601C45.0621 33.4269 48.2934 30.3367 49.8423 26.1152ZM20.0447 23.7468C19.5797 25.0678 18.1267 25.7635 16.8062 25.2993L8.78699 22.477C8.14713 22.2518 7.63334 21.7909 7.3401 21.1792C7.04686 20.5675 7.00939 19.8784 7.23461 19.2384C7.58465 18.2439 8.50878 17.5757 9.55508 17.5451L19.2958 20.9733C20.0926 21.6524 20.3948 22.7523 20.0447 23.7468ZM19.6385 19.5423L23.9595 16.6114C24.294 16.3845 24.3812 15.9293 24.1543 15.5948C23.9273 15.2602 23.4722 15.1731 23.1378 15.3999L17.9217 18.9381L16.8811 18.5718L21.7301 10.5115C21.9385 10.1652 21.8267 9.71552 21.4802 9.50708C21.1339 9.29874 20.6841 9.41057 20.4758 9.757L15.4713 18.0757L11.9015 16.8194L10.7928 13.2093C10.6741 12.8228 10.2643 12.6061 9.87828 12.7245C9.49194 12.8432 9.27482 13.2526 9.39348 13.639L10.1846 16.2151L2.58626 10.1861C1.29121 9.02609 1.1745 7.02931 2.32893 5.72655C2.88994 5.09342 3.66408 4.71665 4.50848 4.66571C5.35181 4.61379 6.16664 4.89552 6.79938 5.45634C6.83617 5.48893 6.87404 5.52387 6.91239 5.56027L8.5564 10.9139C8.6531 11.2287 8.94283 11.4311 9.25579 11.4311C9.32693 11.4311 9.39943 11.4206 9.47096 11.3987C9.8573 11.2799 10.0744 10.8705 9.95576 10.4841L8.27926 5.02443L8.2694 4.91787C8.11141 3.17871 9.39768 1.63521 11.1369 1.47722C12.8769 1.31884 14.4197 2.60559 14.5777 4.34475C14.5929 4.51279 14.6036 4.70923 14.6099 4.92743L13.2625 14.8313C13.208 15.2318 13.4885 15.6007 13.8891 15.6551C13.9226 15.6597 13.9559 15.6619 13.9887 15.6619C14.349 15.6619 14.6631 15.3955 14.713 15.0285L16.0605 5.12396C16.1383 4.87063 16.213 4.64141 16.2824 4.44429C16.5632 3.64624 17.1381 3.0055 17.9008 2.63975C18.6638 2.2741 19.5237 2.22755 20.3213 2.5082C21.1194 2.78905 21.7601 3.36393 22.1259 4.12665C22.4915 4.88947 22.5382 5.74909 22.2573 6.54714C22.1833 6.75753 22.0912 7.00052 21.9835 7.26937C21.8499 7.60271 21.9779 7.98369 22.2858 8.1688C22.5934 8.35373 22.9901 8.28825 23.2219 8.01404C23.3781 7.82921 23.5215 7.66888 23.6486 7.53714C24.861 6.28015 26.8701 6.24424 28.1269 7.45653C28.7358 8.0439 29.0795 8.83316 29.0946 9.67893C29.1094 10.5026 28.8103 11.2833 28.2522 11.886L25.633 13.6856C25.2999 13.9145 25.2154 14.3701 25.4442 14.7033C25.5861 14.9098 25.8151 15.0208 26.0481 15.0208C26.1909 15.0208 26.3352 14.9791 26.4618 14.8921L28.79 13.2925C28.8691 13.2849 28.9456 13.2786 29.0155 13.2753C29.8595 13.2336 30.6708 13.5252 31.2971 14.0938C31.9235 14.6624 32.291 15.4409 32.3318 16.2859C32.3461 16.5839 32.318 16.8802 32.2506 17.1668C31.8786 16.8403 31.4892 16.5165 31.0805 16.1985C30.7373 15.9314 30.2965 15.8308 29.8711 15.9221C29.4458 16.0136 29.0854 16.2869 28.8826 16.6718C28.3575 17.6681 27.9236 18.6523 27.5641 19.6004L19.6385 19.5423ZM26.5943 28.7449C26.9904 28.7326 27.3047 28.4067 27.3035 28.0106C27.3033 27.9638 27.3178 23.7066 29.4459 18.8762C29.6308 20.5305 29.8856 22.2057 30.2095 23.8788C30.2772 24.2286 30.5836 24.4716 30.9272 24.4716C30.9734 24.4716 31.0201 24.4672 31.0672 24.4581C31.4639 24.3813 31.7234 23.9973 31.6466 23.6005C31.2744 21.6776 30.9951 19.7523 30.8117 17.862C35.2036 21.5288 37.1672 25.8367 37.1872 25.8812C37.3482 26.2427 37.769 26.41 38.1348 26.2598C38.1744 26.2436 41.9882 24.7153 47.6392 25.4838C41.767 29.761 35.9801 31.9281 34.0888 32.5689C33.7143 31.5482 32.962 29.3502 32.2519 26.3932C32.1576 26.0003 31.7624 25.7585 31.3694 25.8524C30.9763 25.9469 30.7342 26.342 30.8286 26.735C31.4114 29.162 32.0135 31.0699 32.4315 32.2814C30.102 31.5689 25.2628 30.4508 19.1945 31.0451C23.3094 28.8868 26.5573 28.7462 26.5943 28.7449ZM17.2796 32.7685C24.3886 31.6306 30.1781 33.1028 32.3963 33.8122C31.0645 35.4654 28.2173 39.5538 26.2301 46.3279C25.5317 41.6053 26.4685 38.3438 26.4792 38.3076C26.5373 38.114 26.5123 37.9048 26.4108 37.7301C26.3093 37.5553 26.1399 37.4302 25.943 37.3845C25.891 37.3725 20.8811 36.1797 17.2796 32.7685ZM35.0016 42.1924C34.9765 42.2308 32.5146 45.9292 27.2075 48.298C29.1332 40.793 32.2811 36.3042 33.583 34.6827C34.7125 36.1985 37.7421 39.6367 44.6866 44.3166C39.4212 44.1041 36.0577 42.0059 36.0097 41.9756C35.6718 41.7588 35.2213 41.8561 35.0016 42.1924ZM42.2863 33.8644C42.1254 33.987 42.0222 34.1708 42.0015 34.3719C41.9808 34.5731 42.0444 34.7739 42.1771 34.9267C42.2047 34.9586 44.8187 38.0204 46.0425 43.4626C38.9831 38.7759 35.9117 35.3189 34.8114 33.8727C36.9194 33.1485 42.199 31.1064 47.7835 27.1806C45.7668 31.1746 42.3248 33.8351 42.2863 33.8644Z" fill="#EF642F"/>
<path d="M37.4612 10.9861C37.4612 11.3904 37.7888 11.718 38.1931 11.718H38.9891V13.469C38.9891 13.8733 39.3167 14.2009 39.721 14.2009C40.1252 14.2009 40.4528 13.8733 40.4528 13.469V11.718H41.2489C41.6532 11.718 41.9808 11.3904 41.9808 10.9861C41.9808 10.5818 41.6532 10.2542 41.2489 10.2542H40.4528V8.50313C40.4528 8.09883 40.1252 7.77124 39.721 7.77124C39.3167 7.77124 38.9891 8.09883 38.9891 8.50313V10.2541H38.1931C37.7888 10.2542 37.4612 10.5818 37.4612 10.9861Z" fill="#EF642F"/>
<path d="M6.27808 34.0911V31.9063H7.34117C7.74546 31.9063 8.07306 31.5787 8.07306 31.1744C8.07306 30.7701 7.74546 30.4425 7.34117 30.4425H6.27808V28.2578C6.27808 27.8535 5.95049 27.5259 5.5462 27.5259C5.1419 27.5259 4.81431 27.8535 4.81431 28.2578V30.4425H3.75142C3.34712 30.4425 3.01953 30.7701 3.01953 31.1744C3.01953 31.5787 3.34712 31.9063 3.75142 31.9063H4.81441V34.0911C4.81441 34.4954 5.142 34.823 5.54629 34.823C5.95059 34.823 6.27808 34.4954 6.27808 34.0911Z" fill="#EF642F"/>
<path d="M8.6358 42.8329H8.17256V41.6228C8.17256 41.2185 7.84497 40.8909 7.44068 40.8909C7.03638 40.8909 6.70879 41.2185 6.70879 41.6228V42.8329H6.24556C5.84126 42.8329 5.51367 43.1605 5.51367 43.5648C5.51367 43.9691 5.84126 44.2967 6.24556 44.2967H6.70879V45.5068C6.70879 45.9111 7.03638 46.2387 7.44068 46.2387C7.84497 46.2387 8.17256 45.9111 8.17256 45.5068V44.2967H8.6358C9.04009 44.2967 9.36769 43.9691 9.36769 43.5648C9.36769 43.1605 9.04009 42.8329 8.6358 42.8329Z" fill="#EF642F"/>
<path d="M11.2755 34.4775C10.0649 34.4775 9.07983 35.4626 9.07983 36.6732C9.07983 37.8838 10.0649 38.8689 11.2755 38.8689C12.4861 38.8689 13.4711 37.8838 13.4711 36.6732C13.4711 35.4626 12.4861 34.4775 11.2755 34.4775ZM11.2755 37.4051C10.8719 37.4051 10.5436 37.0768 10.5436 36.6732C10.5436 36.2696 10.8719 35.9413 11.2755 35.9413C11.6791 35.9413 12.0074 36.2696 12.0074 36.6732C12.0074 37.0768 11.6791 37.4051 11.2755 37.4051Z" fill="#EF642F"/>
<path d="M43.4846 17.4236C43.4846 18.6342 44.4696 19.6192 45.6803 19.6192C46.8909 19.6192 47.8759 18.6342 47.8759 17.4236C47.8759 16.2129 46.8909 15.2279 45.6803 15.2279C44.4696 15.2279 43.4846 16.2129 43.4846 17.4236ZM45.6803 16.6917C46.0839 16.6917 46.4122 17.02 46.4122 17.4236C46.4122 17.8272 46.0839 18.1554 45.6803 18.1554C45.2767 18.1554 44.9484 17.8272 44.9484 17.4236C44.9484 17.02 45.2767 16.6917 45.6803 16.6917Z" fill="#EF642F"/>
<path d="M35.8463 5.88326C37.0569 5.88326 38.0419 4.89824 38.0419 3.6876C38.0419 2.47696 37.0569 1.49194 35.8463 1.49194C34.6357 1.49194 33.6506 2.47696 33.6506 3.6876C33.6506 4.89824 34.6357 5.88326 35.8463 5.88326ZM35.8463 2.95572C36.2499 2.95572 36.5782 3.28399 36.5782 3.6876C36.5782 4.09121 36.2499 4.41949 35.8463 4.41949C35.4427 4.41949 35.1144 4.09121 35.1144 3.6876C35.1144 3.28399 35.4427 2.95572 35.8463 2.95572Z" fill="#EF642F"/>
<path d="M11.8359 29.9966C12.2401 29.9966 12.5678 29.6689 12.5678 29.2647C12.5678 28.8605 12.2401 28.5328 11.8359 28.5328C11.4317 28.5328 11.104 28.8605 11.104 29.2647C11.104 29.6689 11.4317 29.9966 11.8359 29.9966Z" fill="#EF642F"/>
<path d="M39.4455 19.5937C39.8497 19.5937 40.1774 19.266 40.1774 18.8618C40.1774 18.4576 39.8497 18.1299 39.4455 18.1299C39.0413 18.1299 38.7136 18.4576 38.7136 18.8618C38.7136 19.266 39.0413 19.5937 39.4455 19.5937Z" fill="#EF642F"/>
<path d="M43.6474 6.47976C44.0516 6.47976 44.3793 6.15209 44.3793 5.74788C44.3793 5.34367 44.0516 5.01599 43.6474 5.01599C43.2432 5.01599 42.9155 5.34367 42.9155 5.74788C42.9155 6.15209 43.2432 6.47976 43.6474 6.47976Z" fill="#EF642F"/>
<path d="M15.225 43.401C15.6293 43.401 15.9569 43.0734 15.9569 42.6691C15.9569 42.2649 15.6293 41.9373 15.225 41.9373C14.8208 41.9373 14.4932 42.2649 14.4932 42.6691C14.4932 43.0734 14.8208 43.401 15.225 43.401Z" fill="#EF642F"/>
</g>
<defs>
<clipPath id="clip0_7_1052">
<rect width="50" height="50" fill="white"/>
</clipPath>
</defs>
</svg>
