<svg width="50" height="50" viewBox="0 0 50 50" fill="none" xmlns="http://www.w3.org/2000/svg">
<path d="M10.4374 33.5938C12.6329 35.4829 15.2929 36.7519 18.1426 37.2696C20.9924 37.7874 23.9287 37.5352 26.6484 36.5391C26.7723 36.495 26.8832 36.4203 26.9706 36.322C27.058 36.2237 27.1191 36.1049 27.1484 35.9766C27.1776 35.8475 27.1736 35.7132 27.1367 35.5861C27.0998 35.459 27.0313 35.3434 26.9374 35.25L21.5468 29.8672C21.4362 29.7498 21.292 29.6695 21.1339 29.6373C20.9759 29.6051 20.8117 29.6227 20.664 29.6875C18.6158 30.7169 16.3548 31.2521 14.0624 31.25C13.3112 31.2418 12.5616 31.1765 11.8203 31.0547C12.1731 28.0115 13.4678 25.1545 15.5234 22.8828L18.4843 25.836C18.6298 25.9803 18.8262 26.0617 19.0312 26.0625C19.134 26.0631 19.2359 26.0434 19.3311 26.0045C19.4263 25.9657 19.5129 25.9084 19.5859 25.836C20.553 24.8745 21.1222 23.5838 21.1801 22.2213C21.238 20.8588 20.7804 19.5245 19.8984 18.4844C19.8356 18.3973 19.7556 18.3241 19.6633 18.2694C19.571 18.2146 19.4684 18.1795 19.3619 18.1661C19.2554 18.1528 19.1473 18.1615 19.0443 18.1918C18.9413 18.222 18.8457 18.2732 18.7634 18.3421C18.681 18.411 18.6138 18.496 18.5658 18.5921C18.5178 18.6881 18.4902 18.7929 18.4845 18.9001C18.4788 19.0073 18.4953 19.1145 18.5329 19.215C18.5705 19.3155 18.6285 19.4072 18.7031 19.4844C19.2398 20.1266 19.556 20.9241 19.6052 21.7596C19.6545 22.5951 19.4341 23.4243 18.9765 24.125L16.6328 21.7813C16.8828 21.5547 17.1328 21.3438 17.414 21.1328C17.5767 20.9992 17.6796 20.8064 17.7001 20.5969C17.7206 20.3874 17.657 20.1783 17.5234 20.0156C17.3897 19.853 17.197 19.7501 16.9874 19.7296C16.7779 19.7091 16.5688 19.7726 16.4062 19.9063C15.9061 20.3064 15.4288 20.7341 14.9765 21.1875H14.9374C14.9374 21.1875 14.9374 21.1875 14.9374 21.2344C12.2706 23.9037 10.6137 27.4163 10.2499 31.1719C8.40275 29.1771 7.13889 26.7133 6.59624 24.0493C6.05358 21.3853 6.25299 18.6234 7.1727 16.065C8.09241 13.5066 9.69709 11.2499 11.8117 9.54114C13.9263 7.83237 16.4695 6.73717 19.164 6.37502L19.5312 6.33596C19.5409 8.02558 19.9177 9.69291 20.6353 11.2226C21.3529 12.7523 22.3943 14.1078 23.6874 15.1953C23.829 15.3164 24.0091 15.3829 24.1953 15.3828C24.3087 15.3819 24.4206 15.3562 24.5231 15.3077C24.6257 15.2591 24.7164 15.1888 24.789 15.1016C24.8552 15.0231 24.9054 14.9324 24.9365 14.8345C24.9676 14.7367 24.9792 14.6337 24.9705 14.5314C24.9618 14.4291 24.933 14.3295 24.8858 14.2383C24.8385 14.1471 24.7738 14.0662 24.6953 14C23.5654 13.0496 22.6575 11.8632 22.0353 10.5243C21.4131 9.1854 21.0917 7.72645 21.0937 6.25002C23.6188 6.25341 26.1013 6.90091 28.3064 8.13128C30.5115 9.36164 32.3663 11.1342 33.6953 13.2813L28.5703 15.9766C27.9463 16.2821 27.2568 16.4296 26.5624 16.4063C25.0324 16.4044 23.5098 16.6175 22.039 17.0391C21.8498 17.1042 21.6929 17.2395 21.6005 17.4169C21.5081 17.5944 21.4873 17.8006 21.5424 17.9929C21.5975 18.1852 21.7243 18.3491 21.8966 18.4507C22.069 18.5523 22.2737 18.584 22.4687 18.5391C23.8006 18.1619 25.1781 17.97 26.5624 17.9688C27.5048 17.9794 28.4355 17.7595 29.2734 17.3281L35.1562 14.25C35.2473 14.2016 35.328 14.1357 35.3934 14.0559C35.4589 13.9762 35.508 13.8843 35.5378 13.7855C35.5676 13.6867 35.5775 13.583 35.567 13.4804C35.5564 13.3778 35.5257 13.2782 35.4765 13.1875C34.0116 10.5025 31.8225 8.28237 29.1584 6.77973C26.4942 5.27709 23.4619 4.55221 20.4062 4.68752C19.9999 4.68752 19.5859 4.7344 19.1718 4.78127L17.3749 2.0469C17.2931 1.91857 17.1756 1.81694 17.0368 1.75448C16.898 1.69203 16.744 1.67147 16.5937 1.69534C13.5925 2.09563 10.7606 3.31864 8.41149 5.22897C6.0624 7.1393 4.28778 9.66243 3.28409 12.519C2.2804 15.3756 2.08679 18.4543 2.7247 21.4141C3.3626 24.3739 4.80714 27.0995 6.89838 29.2891C7.82396 30.9153 9.02091 32.3712 10.4374 33.5938ZM20.8515 31.3281L24.9374 35.4219C22.6815 36.0252 20.3151 36.0878 18.0304 35.6046C15.7458 35.1213 13.6074 34.1058 11.789 32.6406C14.8732 33.1051 18.0258 32.6486 20.8515 31.3281ZM4.02338 16.0703C4.44532 12.9081 5.86805 9.96395 8.08345 7.66842C10.2989 5.37289 13.1907 3.84649 16.3359 3.31252L17.4843 5.08596C14.2091 5.84261 11.2424 7.57972 8.9798 10.0657C6.71718 12.5516 5.26617 15.6683 4.82026 19C4.65229 20.3385 4.65229 21.6928 4.82026 23.0313C4.00299 20.8078 3.72975 18.421 4.02338 16.0703Z" fill="#17C6D8"/>
<path d="M25.7812 10.1562C26.2127 10.1562 26.5625 9.80647 26.5625 9.375C26.5625 8.94353 26.2127 8.59375 25.7812 8.59375C25.3498 8.59375 25 8.94353 25 9.375C25 9.80647 25.3498 10.1562 25.7812 10.1562Z" fill="#17C6D8"/>
<path d="M39.8438 14.7344V26.5625C39.8438 27.8057 39.3499 28.998 38.4708 29.8771C37.5917 30.7561 36.3995 31.25 35.1562 31.25C33.913 31.25 32.7208 30.7561 31.8417 29.8771C30.9626 28.998 30.4688 27.8057 30.4688 26.5625V24.2188L32.3438 25.625C32.5095 25.7493 32.7179 25.8027 32.923 25.7734C33.1281 25.7441 33.3132 25.6345 33.4375 25.4687C33.5618 25.303 33.6152 25.0946 33.5859 24.8895C33.5566 24.6844 33.447 24.4993 33.2812 24.375L30.1562 22.0312C30.0396 21.9443 29.901 21.8917 29.7561 21.8793C29.6112 21.8668 29.4657 21.8951 29.3359 21.9609C29.2071 22.0259 29.0988 22.1252 29.0229 22.2479C28.9471 22.3706 28.9067 22.512 28.9062 22.6562V26.5625C28.9062 28.2201 29.5647 29.8098 30.7368 30.9819C31.9089 32.154 33.4986 32.8125 35.1562 32.8125C36.8139 32.8125 38.4036 32.154 39.5757 30.9819C40.7478 29.8098 41.4062 28.2201 41.4062 26.5625V14.7344C42.0683 14.5545 42.6527 14.1617 43.0693 13.6167C43.486 13.0717 43.7117 12.4048 43.7117 11.7188C43.7117 11.0327 43.486 10.3658 43.0693 9.82078C42.6527 9.27578 42.0683 8.88303 41.4062 8.70313V2.34375C41.4062 2.13655 41.3239 1.93784 41.1774 1.79132C41.0309 1.64481 40.8322 1.5625 40.625 1.5625C40.4178 1.5625 40.2191 1.64481 40.0726 1.79132C39.9261 1.93784 39.8438 2.13655 39.8438 2.34375V8.70313C39.1817 8.88303 38.5973 9.27578 38.1807 9.82078C37.764 10.3658 37.5383 11.0327 37.5383 11.7188C37.5383 12.4048 37.764 13.0717 38.1807 13.6167C38.5973 14.1617 39.1817 14.5545 39.8438 14.7344ZM40.625 10.1562C40.934 10.1562 41.2361 10.2479 41.4931 10.4196C41.75 10.5913 41.9503 10.8353 42.0686 11.1208C42.1868 11.4063 42.2178 11.7205 42.1575 12.0236C42.0972 12.3267 41.9484 12.6051 41.7299 12.8236C41.5113 13.0421 41.2329 13.1909 40.9298 13.2512C40.6267 13.3115 40.3126 13.2806 40.0271 13.1623C39.7415 13.0441 39.4975 12.8438 39.3258 12.5868C39.1541 12.3299 39.0625 12.0278 39.0625 11.7188C39.0625 11.3043 39.2271 10.9069 39.5201 10.6139C39.8132 10.3209 40.2106 10.1562 40.625 10.1562Z" fill="#17C6D8"/>
<path d="M15.8048 10.4063C15.6019 10.3722 15.3937 10.4196 15.2255 10.538C15.0573 10.6565 14.9426 10.8366 14.9064 11.0391C14.7269 12.0584 14.9593 13.1073 15.5525 13.9555C16.1458 14.8036 17.0514 15.3816 18.0704 15.5626H18.211C18.4182 15.5802 18.624 15.5147 18.7829 15.3807C18.9419 15.2466 19.0411 15.0549 19.0587 14.8477C19.0763 14.6405 19.0109 14.4348 18.8768 14.2758C18.7428 14.1169 18.5511 14.0177 18.3439 14.0001C17.7307 13.9003 17.1822 13.5613 16.8189 13.0573C16.4556 12.5534 16.3072 11.9258 16.4064 11.3126C16.4435 11.1129 16.4015 10.9067 16.2892 10.7375C16.1769 10.5684 16.0032 10.4496 15.8048 10.4063Z" fill="#17C6D8"/>
<path d="M14.4531 17.1875C14.4531 16.9803 14.3708 16.7816 14.2243 16.6351C14.0778 16.4886 13.8791 16.4062 13.6719 16.4062C13.1539 16.4062 12.6571 16.2005 12.2908 15.8342C11.9245 15.4679 11.7188 14.9711 11.7188 14.4531C11.7188 14.2459 11.6364 14.0472 11.4899 13.9007C11.3434 13.7542 11.1447 13.6719 10.9375 13.6719C10.7303 13.6719 10.5316 13.7542 10.3851 13.9007C10.2386 14.0472 10.1562 14.2459 10.1562 14.4531C10.1583 15.3849 10.5294 16.2779 11.1882 16.9368C11.8471 17.5956 12.7401 17.9667 13.6719 17.9688C13.8791 17.9688 14.0778 17.8864 14.2243 17.7399C14.3708 17.5934 14.4531 17.3947 14.4531 17.1875Z" fill="#17C6D8"/>
<path d="M9.375 19.9219C9.375 19.7147 9.29269 19.516 9.14618 19.3694C8.99966 19.2229 8.80095 19.1406 8.59375 19.1406C8.38655 19.1406 8.18784 19.2229 8.04132 19.3694C7.89481 19.516 7.8125 19.7147 7.8125 19.9219C7.81456 20.8536 8.18562 21.7467 8.84448 22.4055C9.50334 23.0644 10.3964 23.4354 11.3281 23.4375C11.5353 23.4375 11.734 23.3552 11.8806 23.2087C12.0271 23.0622 12.1094 22.8635 12.1094 22.6562C12.1094 22.449 12.0271 22.2503 11.8806 22.1038C11.734 21.9573 11.5353 21.875 11.3281 21.875C10.8101 21.875 10.3133 21.6692 9.94706 21.3029C9.58078 20.9367 9.375 20.4399 9.375 19.9219Z" fill="#17C6D8"/>
<path d="M4.2969 41.8281C5.23738 41.8271 6.13914 41.4535 6.80471 40.789C6.98828 40.6052 7.20627 40.4594 7.44623 40.36C7.68618 40.2605 7.94339 40.2093 8.20315 40.2093C8.4629 40.2093 8.72011 40.2605 8.96007 40.36C9.20002 40.4594 9.41802 40.6052 9.60159 40.789C10.2667 41.4541 11.1688 41.8277 12.1094 41.8277C13.05 41.8277 13.9521 41.4541 14.6172 40.789C14.8008 40.6052 15.0188 40.4594 15.2587 40.36C15.4987 40.2605 15.7559 40.2093 16.0156 40.2093C16.2754 40.2093 16.5326 40.2605 16.7726 40.36C17.0125 40.4594 17.2305 40.6052 17.4141 40.789C18.0792 41.4541 18.9813 41.8277 19.9219 41.8277C20.8625 41.8277 21.7646 41.4541 22.4297 40.789C22.6133 40.6052 22.8313 40.4594 23.0712 40.36C23.3112 40.2605 23.5684 40.2093 23.8281 40.2093C24.0879 40.2093 24.3451 40.2605 24.5851 40.36C24.825 40.4594 25.043 40.6052 25.2266 40.789C25.8917 41.4541 26.7938 41.8277 27.7344 41.8277C28.675 41.8277 29.5771 41.4541 30.2422 40.789C30.4258 40.6052 30.6438 40.4594 30.8837 40.36C31.1237 40.2605 31.3809 40.2093 31.6406 40.2093C31.9004 40.2093 32.1576 40.2605 32.3976 40.36C32.6375 40.4594 32.8555 40.6052 33.0391 40.789C33.7042 41.4541 34.6063 41.8277 35.5469 41.8277C36.4875 41.8277 37.3896 41.4541 38.0547 40.789C38.2383 40.6052 38.4563 40.4594 38.6962 40.36C38.9362 40.2605 39.1934 40.2093 39.4531 40.2093C39.7129 40.2093 39.9701 40.2605 40.2101 40.36C40.45 40.4594 40.668 40.6052 40.8516 40.789C41.5167 41.4541 42.4188 41.8277 43.3594 41.8277C44.3 41.8277 45.2021 41.4541 45.8672 40.789C46.0838 40.5709 46.3488 40.407 46.6407 40.3106C46.9325 40.2142 47.243 40.1881 47.5469 40.2343C47.6495 40.2487 47.7539 40.2427 47.8542 40.2167C47.9545 40.1907 48.0487 40.1452 48.1314 40.0828C48.2141 40.0205 48.2837 39.9424 48.3362 39.8531C48.3887 39.7638 48.4232 39.665 48.4375 39.5625C48.4519 39.4599 48.4459 39.3554 48.4199 39.2552C48.3939 39.1549 48.3484 39.0607 48.286 38.978C48.2237 38.8953 48.1456 38.8257 48.0563 38.7732C47.967 38.7206 47.8682 38.6862 47.7656 38.6718C47.2217 38.5916 46.6665 38.6395 46.1443 38.8118C45.6221 38.984 45.1473 39.2759 44.7578 39.664C44.5743 39.8478 44.3563 39.9936 44.1163 40.0931C43.8764 40.1925 43.6192 40.2437 43.3594 40.2437C43.0996 40.2437 42.8424 40.1925 42.6025 40.0931C42.3625 39.9936 42.1445 39.8478 41.961 39.664C41.2958 38.999 40.3937 38.6254 39.4531 38.6254C38.5126 38.6254 37.6105 38.999 36.9453 39.664C36.7618 39.8478 36.5438 39.9936 36.3038 40.0931C36.0639 40.1925 35.8067 40.2437 35.5469 40.2437C35.2871 40.2437 35.0299 40.1925 34.79 40.0931C34.55 39.9936 34.332 39.8478 34.1485 39.664C33.4833 38.999 32.5812 38.6254 31.6406 38.6254C30.7001 38.6254 29.798 38.999 29.1328 39.664C28.9493 39.8478 28.7313 39.9936 28.4913 40.0931C28.2514 40.1925 27.9942 40.2437 27.7344 40.2437C27.4746 40.2437 27.2174 40.1925 26.9775 40.0931C26.7375 39.9936 26.5195 39.8478 26.336 39.664C25.6708 38.999 24.7687 38.6254 23.8281 38.6254C22.8876 38.6254 21.9855 38.999 21.3203 39.664C21.1368 39.8478 20.9188 39.9936 20.6788 40.0931C20.4389 40.1925 20.1817 40.2437 19.9219 40.2437C19.6621 40.2437 19.4049 40.1925 19.165 40.0931C18.925 39.9936 18.707 39.8478 18.5235 39.664C17.8583 38.999 16.9562 38.6254 16.0156 38.6254C15.0751 38.6254 14.173 38.999 13.5078 39.664C13.3243 39.8478 13.1063 39.9936 12.8663 40.0931C12.6264 40.1925 12.3692 40.2437 12.1094 40.2437C11.8496 40.2437 11.5924 40.1925 11.3525 40.0931C11.1125 39.9936 10.8945 39.8478 10.711 39.664C10.0458 38.999 9.14374 38.6254 8.20315 38.6254C7.26256 38.6254 6.36049 38.999 5.69534 39.664C5.51177 39.8478 5.29377 39.9936 5.05382 40.0931C4.81386 40.1925 4.55665 40.2437 4.2969 40.2437C4.03714 40.2437 3.77993 40.1925 3.53998 40.0931C3.30003 39.9936 3.08203 39.8478 2.89846 39.664C2.75135 39.5169 2.55182 39.4343 2.34377 39.4343C2.13572 39.4343 1.9362 39.5169 1.78909 39.664C1.64197 39.8111 1.55933 40.0107 1.55933 40.2187C1.55933 40.4268 1.64197 40.6263 1.78909 40.7734C2.45209 41.4436 3.35418 41.823 4.2969 41.8281Z" fill="#17C6D8"/>
<path d="M48.211 43.5859C47.5458 42.9208 46.6438 42.5472 45.7032 42.5472C44.7626 42.5472 43.8605 42.9208 43.1954 43.5859C43.0118 43.7697 42.7938 43.9155 42.5538 44.0149C42.3139 44.1144 42.0567 44.1656 41.7969 44.1656C41.5372 44.1656 41.28 44.1144 41.04 44.0149C40.8001 43.9155 40.5821 43.7697 40.3985 43.5859C39.7333 42.9208 38.8313 42.5472 37.8907 42.5472C36.9501 42.5472 36.048 42.9208 35.3829 43.5859C35.1993 43.7697 34.9813 43.9155 34.7413 44.0149C34.5014 44.1144 34.2442 44.1656 33.9844 44.1656C33.7247 44.1656 33.4675 44.1144 33.2275 44.0149C32.9876 43.9155 32.7696 43.7697 32.586 43.5859C31.9208 42.9208 31.0188 42.5472 30.0782 42.5472C29.1376 42.5472 28.2355 42.9208 27.5704 43.5859C27.3868 43.7697 27.1688 43.9155 26.9289 44.0149C26.6889 44.1144 26.4317 44.1656 26.1719 44.1656C25.9122 44.1656 25.655 44.1144 25.415 44.0149C25.1751 43.9155 24.9571 43.7697 24.7735 43.5859C24.1083 42.9208 23.2063 42.5472 22.2657 42.5472C21.3251 42.5472 20.423 42.9208 19.7579 43.5859C19.5743 43.7697 19.3563 43.9155 19.1163 44.0149C18.8764 44.1144 18.6192 44.1656 18.3594 44.1656C18.0997 44.1656 17.8425 44.1144 17.6025 44.0149C17.3626 43.9155 17.1446 43.7697 16.961 43.5859C16.2958 42.9208 15.3938 42.5472 14.4532 42.5472C13.5126 42.5472 12.6105 42.9208 11.9454 43.5859C11.7618 43.7697 11.5438 43.9155 11.3038 44.0149C11.0639 44.1144 10.8067 44.1656 10.5469 44.1656C10.2872 44.1656 10.03 44.1144 9.79001 44.0149C9.55006 43.9155 9.33206 43.7697 9.14849 43.5859C8.48334 42.9208 7.58127 42.5472 6.64068 42.5472C5.70009 42.5472 4.79802 42.9208 4.13287 43.5859C3.91521 43.8025 3.65009 43.9653 3.35854 44.0616C3.06698 44.1579 2.757 44.1849 2.45318 44.1406C2.24598 44.1116 2.03574 44.1661 1.86872 44.2921C1.70169 44.4181 1.59156 44.6053 1.56255 44.8125C1.53355 45.0197 1.58804 45.2299 1.71404 45.3969C1.84004 45.5639 2.02723 45.6741 2.23443 45.7031C2.77848 45.7858 3.33438 45.7391 3.85699 45.5667C4.3796 45.3943 4.85419 45.1011 5.24224 44.7109C5.42581 44.5271 5.64381 44.3813 5.88376 44.2818C6.12372 44.1824 6.38092 44.1312 6.64068 44.1312C6.90043 44.1312 7.15764 44.1824 7.3976 44.2818C7.63755 44.3813 7.85555 44.5271 8.03912 44.7109C8.70427 45.3759 9.60634 45.7495 10.5469 45.7495C11.4875 45.7495 12.3896 45.3759 13.0547 44.7109C13.2383 44.5271 13.4563 44.3813 13.6963 44.2818C13.9362 44.1824 14.1934 44.1312 14.4532 44.1312C14.7129 44.1312 14.9701 44.1824 15.2101 44.2818C15.4501 44.3813 15.668 44.5271 15.8516 44.7109C16.5168 45.3759 17.4188 45.7495 18.3594 45.7495C19.3 45.7495 20.2021 45.3759 20.8672 44.7109C21.0508 44.5271 21.2688 44.3813 21.5088 44.2818C21.7487 44.1824 22.0059 44.1312 22.2657 44.1312C22.5254 44.1312 22.7826 44.1824 23.0226 44.2818C23.2626 44.3813 23.4805 44.5271 23.6641 44.7109C24.3293 45.3759 25.2313 45.7495 26.1719 45.7495C27.1125 45.7495 28.0146 45.3759 28.6797 44.7109C28.8633 44.5271 29.0813 44.3813 29.3213 44.2818C29.5612 44.1824 29.8184 44.1312 30.0782 44.1312C30.3379 44.1312 30.5951 44.1824 30.8351 44.2818C31.0751 44.3813 31.293 44.5271 31.4766 44.7109C32.1418 45.3759 33.0438 45.7495 33.9844 45.7495C34.925 45.7495 35.8271 45.3759 36.4922 44.7109C36.6758 44.5271 36.8938 44.3813 37.1338 44.2818C37.3737 44.1824 37.6309 44.1312 37.8907 44.1312C38.1504 44.1312 38.4076 44.1824 38.6476 44.2818C38.8876 44.3813 39.1055 44.5271 39.2891 44.7109C39.9543 45.3759 40.8563 45.7495 41.7969 45.7495C42.7375 45.7495 43.6396 45.3759 44.3047 44.7109C44.4883 44.5271 44.7063 44.3813 44.9463 44.2818C45.1862 44.1824 45.4434 44.1312 45.7032 44.1312C45.9629 44.1312 46.2201 44.1824 46.4601 44.2818C46.7001 44.3813 46.918 44.5271 47.1016 44.7109C47.2487 44.858 47.4483 44.9406 47.6563 44.9406C47.8644 44.9406 48.0639 44.858 48.211 44.7109C48.3581 44.5638 48.4408 44.3643 48.4408 44.1562C48.4408 43.9482 48.3581 43.7486 48.211 43.6015V43.5859Z" fill="#17C6D8"/>
</svg>
