<svg width="50" height="50" viewBox="0 0 50 50" fill="none" xmlns="http://www.w3.org/2000/svg">
<g clip-path="url(#clip0_7_1029)">
<path d="M21.0103 40.6911V38.7375C21.0103 38.7298 21.0102 38.7222 21.01 38.7145C20.9745 37.2027 20.9377 35.6394 20.5039 34.0107C19.5149 30.3075 17.3707 28.2628 13.3352 27.1736C13.2242 27.1436 13.0805 27.1293 12.9807 27.0719C12.8972 27.0239 12.8387 26.8915 12.7901 26.8125L10.2473 22.6854C9.77652 21.9173 9.03247 21.3785 8.15238 21.1681L7.54251 13.2953C7.39905 11.4589 5.9841 10.0712 4.25117 10.0674C4.24873 10.0674 4.24648 10.0674 4.24394 10.0674C2.48758 10.0674 1.07047 11.4548 0.946548 13.2975L0.598009 18.4836C0.561778 19.0217 0.968716 19.4873 1.5069 19.5234C2.04412 19.5588 2.51063 19.1527 2.54676 18.6145L2.89559 13.4284C2.94959 12.625 3.52919 12.0203 4.24443 12.0203H4.24717C5.05928 12.0221 5.54015 12.7395 5.59542 13.4466L6.20217 21.2796C5.9924 21.3569 5.78878 21.4556 5.59425 21.5755C4.00771 22.5536 3.51044 24.6407 4.48633 26.2288L8.60824 32.9204C8.89106 33.3796 9.49273 33.5226 9.95191 33.2398C10.4111 32.957 10.5541 32.3553 10.2712 31.8961L6.14992 25.2053C5.73761 24.5343 5.94826 23.6518 6.61936 23.238C6.93977 23.0405 7.33216 22.98 7.69798 23.0673C8.07025 23.1562 8.38432 23.3828 8.58344 23.7078L11.1266 27.8353C11.6363 28.6656 12.0161 28.8405 12.7613 29.0415L12.8256 29.0589C16.7023 30.1051 17.9445 31.9965 18.6168 34.5138C18.9897 35.9135 19.0245 37.3547 19.0573 38.7487V40.5725H10.2254V40.4255C10.2254 37.4072 7.24768 34.8623 5.27725 33.1783C4.98223 32.926 4.70342 32.6878 4.4792 32.4847L4.4415 32.4505C2.61561 30.7944 1.85984 30.1089 1.9615 27.3325C1.98123 26.7935 1.56032 26.3406 1.02135 26.3209C0.481602 26.2991 0.0292536 26.7222 0.00962449 27.2612C-0.12524 30.9454 1.1694 32.1197 3.12919 33.8973L3.16747 33.932C3.41308 34.1544 3.70214 34.4015 4.0082 34.663C5.70616 36.1142 8.27211 38.3073 8.27211 40.4255V40.691C7.28704 41.0093 6.57238 41.9347 6.57238 43.0242V46.572C6.57238 47.9238 7.6724 49.0236 9.02436 49.0236H20.2579C21.6099 49.0236 22.7099 47.9238 22.7099 46.572V43.0242C22.71 41.9348 21.9954 41.0095 21.0103 40.6911ZM20.7569 46.5721C20.7569 46.8469 20.5331 47.0706 20.258 47.0706H9.02446C8.75405 47.0706 8.52563 46.8424 8.52563 46.5721V43.0243C8.52563 42.754 8.75405 42.5258 9.02446 42.5258H20.258C20.5285 42.5258 20.7569 42.754 20.7569 43.0243V46.5721Z" fill="#35DA4E"/>
<path d="M49.9902 27.2612C49.9899 27.2512 49.9893 27.2414 49.9886 27.2315L49.0531 13.2975C48.9292 11.4547 47.5123 10.0674 45.7557 10.0674C45.7534 10.0674 45.7508 10.0674 45.7485 10.0674C44.0155 10.0712 42.6007 11.4589 42.4571 13.2959L41.8474 21.1681C40.9673 21.3784 40.2233 21.9172 39.7536 22.6834L37.2087 26.8138C37.1605 26.8925 37.1023 27.0243 37.019 27.0719C36.9192 27.129 36.7764 27.1433 36.6655 27.1733C32.629 28.2627 30.4849 30.3075 29.4958 34.0113C29.0622 35.6394 29.0254 37.2027 28.9898 38.7145C28.9896 38.7223 28.9895 38.7299 28.9895 38.7375V40.6911C28.0045 41.0095 27.2898 41.9348 27.2898 43.0243V46.5721C27.2898 47.9239 28.3898 49.0237 29.7419 49.0237H40.9754C42.3274 49.0237 43.4274 47.9239 43.4274 46.5721V43.0243C43.4274 41.9348 42.7127 41.0095 41.7276 40.6911V40.4256C41.7276 38.3074 44.2936 36.1143 45.9915 34.6631C46.2976 34.4016 46.5867 34.1545 46.833 33.9315L46.8706 33.8973C48.8304 32.1197 50.1252 30.9454 49.9902 27.2612ZM41.4743 46.5721C41.4743 46.8424 41.2459 47.0706 40.9755 47.0706H29.742C29.4715 47.0706 29.243 46.8424 29.243 46.5721V43.0243C29.243 42.754 29.4715 42.5258 29.742 42.5258H40.9755C41.2459 42.5258 41.4743 42.754 41.4743 43.0243V46.5721ZM45.5585 32.4506L45.5215 32.4842C45.2966 32.6878 45.0178 32.9261 44.7228 33.1783C42.7523 34.8623 39.7747 37.4072 39.7747 40.4255V40.5725H30.9428V38.7489C30.9756 37.3549 31.0103 35.9135 31.383 34.5144C32.0555 31.9965 33.2977 30.1051 37.1753 29.0586L37.2386 29.0415C37.9838 28.8405 38.3637 28.6657 38.8724 27.8368L41.4177 23.7059C41.6156 23.3829 41.9297 23.1563 42.302 23.0674C42.4375 23.0351 42.5743 23.0231 42.7092 23.0297C42.7144 23.03 42.7194 23.0299 42.7245 23.0301C42.9553 23.0441 43.1799 23.1144 43.3815 23.2387C43.7057 23.4381 43.9331 23.7536 44.0219 24.127C44.1104 24.4994 44.0496 24.8818 43.8506 25.2044L39.7287 31.8961C39.4459 32.3553 39.5887 32.9569 40.048 33.2398C40.5073 33.5227 41.1089 33.3797 41.3917 32.9204L45.5132 26.2294C45.9862 25.4627 46.1314 24.5557 45.9222 23.6754C45.7127 22.7939 45.1738 22.048 44.4057 21.5756C44.2111 21.4557 44.0076 21.357 43.7978 21.2797L44.4045 13.4473C44.4598 12.7396 44.9406 12.0222 45.7528 12.0204H45.7555C46.4706 12.0204 47.0503 12.6252 47.1043 13.4284L48.039 27.3471C48.1374 30.1112 47.3811 30.7975 45.5585 32.4506Z" fill="#35DA4E"/>
<path d="M12.053 20.7129H16.364C16.2554 21.2633 16.1977 21.8281 16.1977 22.4014V23.9457C16.1977 24.485 16.6349 24.9223 17.1742 24.9223H32.8258C33.3652 24.9223 33.8024 24.485 33.8024 23.9457V22.4014C33.8024 21.8281 33.7448 21.2633 33.6361 20.7129H37.9498C38.4892 20.7129 38.9264 20.2757 38.9264 19.7364V18.1921C38.9264 15.2035 37.3903 12.4375 34.9224 10.8241C35.7336 9.78871 36.219 8.48665 36.219 7.07267C36.219 3.71111 33.4836 0.976318 30.1212 0.976318C27.9981 0.976318 26.0969 2.06549 25.0009 3.75662C23.9058 2.06539 22.0042 0.976318 19.8787 0.976318C16.5164 0.976318 13.7809 3.71111 13.7809 7.07267C13.7809 8.48674 14.2664 9.7889 15.0776 10.8243C12.6114 12.4372 11.0764 15.2032 11.0764 18.1922V19.7365C11.0764 20.2757 11.5136 20.7129 12.053 20.7129ZM31.8493 22.969H18.1508V22.4013C18.1508 19.9052 19.5286 17.608 21.7029 16.4056C22.6543 17.0198 23.7858 17.3781 25 17.3781C26.2142 17.3781 27.3457 17.0199 28.2971 16.4056C30.4713 17.608 31.8492 19.9052 31.8492 22.4013V22.969H31.8493ZM36.9733 18.1921V18.7598H33.0064C32.3182 17.256 31.212 15.956 29.8007 15.0331C30.2425 14.4691 30.5879 13.8264 30.8104 13.1289C31.7634 13.0212 32.6501 12.6928 33.4189 12.1965C35.5945 13.3996 36.9733 15.6967 36.9733 18.1921ZM30.1212 2.92946C32.4066 2.92946 34.2659 4.78807 34.2659 7.07267C34.2659 9.02259 32.911 10.6611 31.0932 11.0997C31.0112 8.28391 29.0113 5.94228 26.3563 5.33671C27.0194 3.89695 28.4714 2.92946 30.1212 2.92946ZM25.0001 7.13585C27.2855 7.13585 29.1448 8.99446 29.1448 11.2791C29.1448 13.5651 27.2855 15.425 25.0001 15.425C22.7147 15.425 20.8554 13.5651 20.8554 11.2791C20.8554 8.99446 22.7147 7.13585 25.0001 7.13585ZM19.8788 2.92946C21.5308 2.92946 22.9832 3.89685 23.6449 5.33642C20.9893 5.9415 18.9889 8.28352 18.9069 11.0996C17.0891 10.6611 15.7342 9.02249 15.7342 7.07257C15.7341 4.78807 17.5934 2.92946 19.8788 2.92946ZM13.0296 18.1921C13.0296 15.6961 14.4073 13.3991 16.5813 12.1965C17.3501 12.6928 18.2367 13.0212 19.1898 13.1289C19.4122 13.8264 19.7577 14.4691 20.1995 15.0331C18.7882 15.9559 17.6819 17.256 16.9938 18.7598H13.0296V18.1921Z" fill="#35DA4E"/>
<path d="M1.27881 23.9009C1.81816 23.9009 2.25537 23.461 2.25537 22.9216C2.25537 22.3823 1.81816 21.9451 1.27881 21.9451C0.739453 21.9451 0.302246 22.3823 0.302246 22.9216V22.9272C0.302246 23.4665 0.739453 23.9009 1.27881 23.9009Z" fill="#35DA4E"/>
</g>
<defs>
<clipPath id="clip0_7_1029">
<rect width="50" height="50" fill="white"/>
</clipPath>
</defs>
</svg>
