<svg width="50" height="50" viewBox="0 0 50 50" fill="none" xmlns="http://www.w3.org/2000/svg">
<g clip-path="url(#clip0_7_1042)">
<path d="M47.3269 20.9064C46.4629 20.7852 45.5801 20.7385 44.7067 20.7385C37.9125 20.7385 33.3257 23.9942 31.466 25.5541L28.8498 27.7476C26.2137 29.957 22.866 31.1732 19.4234 31.1742C17.3679 31.1742 15.3762 30.7585 13.5016 29.939C10.4527 28.607 8.48407 25.6021 8.48407 22.2824C8.48407 19.8695 9.67324 17.6806 10.2698 16.6823C10.4409 16.3959 10.5959 16.1016 10.7353 15.8011C14.4899 15.6837 18.0294 13.8501 20.309 10.808C20.6147 10.4001 20.5643 9.82751 20.1922 9.47916C17.645 7.09523 14.1873 5.87938 10.7056 6.14259C10.3373 6.17107 9.98842 5.9893 9.79255 5.67012C8.02519 2.78954 5.23874 0.784944 1.94675 0.0256752C1.44999 -0.0890445 0.950844 0.19036 0.778665 0.670324C-1.06025 5.79554 0.880394 11.2239 4.34727 14.1672C1.92286 17.6355 0.643759 21.6926 0.638563 25.9617C0.631868 31.4189 2.78596 36.5847 6.70402 40.5076C10.6751 44.4837 15.9267 46.6733 21.4911 46.6733H24.4944C24.6993 47.4531 24.9909 48.2121 25.3679 48.934C26.0627 50.2644 27.7937 50.303 28.6588 49.3086C29.4772 48.3679 30.1284 47.2882 30.5931 46.1267C34.6598 45.2549 37.6087 43.5025 38.9417 42.6232C39.4023 42.3204 39.5209 41.7091 39.2255 41.2391C38.9853 40.8572 38.3637 40.6034 37.8404 40.9553C35.7932 42.306 33.5742 43.2997 31.2265 43.9208C31.5569 42.0872 31.4267 40.221 30.8442 38.5057C30.7134 38.1206 30.8276 37.6942 31.1353 37.4196C32.5034 36.1986 33.7025 34.7988 34.6996 33.2595C36.4262 30.5936 39.0853 28.6777 42.1872 27.8649C43.9007 27.4158 45.6534 27.2099 47.412 27.2487C46.7653 30.0089 45.5996 32.6359 43.9701 34.9775C43.6554 35.4292 43.7609 36.0632 44.219 36.3685C44.7979 36.7545 45.3745 36.4545 45.61 36.1197C49.0401 31.2422 49.7488 26.3001 49.921 24.1211C50.0201 22.8674 49.2207 21.1718 47.3269 20.9064ZM24.1642 44.6747H21.4911C17.5759 44.6747 13.8311 43.4739 10.6687 41.2452C15.5065 43.3931 20.8845 42.6986 24.4105 41.4255C24.1654 42.4954 24.0858 43.5916 24.1642 44.6747ZM41.6806 25.9315C38.0954 26.871 35.0204 29.0876 33.0222 32.173C32.9282 32.3181 32.831 32.461 32.7331 32.6034L32.2703 32.2648C31.8249 31.9388 31.1997 32.0358 30.8737 32.4812C30.5477 32.9265 30.6447 33.5518 31.09 33.8778L31.5133 34.1875C30.9828 34.804 30.4122 35.386 29.8043 35.9286C28.8971 36.7385 28.5624 38.0023 28.9517 39.1485C29.9558 42.1051 29.2482 45.5791 27.137 48.0045C26.0036 45.8445 25.8169 43.2704 26.6247 40.9422C27.0883 39.6062 27.0006 38.1077 26.3839 36.8312C26.1439 36.3344 25.5466 36.126 25.0495 36.366C24.5525 36.6061 24.3443 37.2036 24.5843 37.7005C24.7926 38.1316 24.9041 38.6027 24.9187 39.0765C22.4116 40.1733 19.6566 40.7068 16.9105 40.6218C9.28271 40.3852 3.18488 34.5807 2.67244 27.1073C2.35026 22.4096 3.93615 17.8416 6.51275 14.5938C6.81814 14.2088 6.83742 13.5642 6.31139 13.1775C2.86131 10.6412 1.34877 6.33846 2.39663 2.22194C4.76927 2.9914 6.76797 4.562 8.08905 6.71539C8.67843 7.67592 9.73839 8.21994 10.8564 8.1355C13.4696 7.93714 16.067 8.73198 18.1167 10.3315C16.3772 12.2675 13.9803 13.4873 11.4157 13.7531C11.5485 13.1196 11.676 12.1168 11.5929 11.1451C11.4795 9.82002 9.52274 9.96222 9.59929 11.29C9.69992 13.0355 9.25053 14.4918 8.55402 15.6569C7.8755 16.7911 6.48547 19.3665 6.48547 22.2823C6.48547 27.5414 10.1535 30.6864 12.7011 31.7697C15.7667 33.073 18.1586 33.1727 19.4274 33.1727C24.8926 33.1727 28.609 30.5575 30.1339 29.2794L32.7501 27.0849C36.0927 24.2819 40.3398 22.737 44.7067 22.737C45.4962 22.737 46.2926 22.7879 47.0731 22.8889C47.5557 22.9468 47.9619 23.3847 47.9295 23.9601C47.9049 24.3962 47.8447 24.8288 47.7839 25.2601C45.7297 25.1826 43.6809 25.4074 41.6806 25.9315ZM42.8866 38.9723C42.8866 39.524 42.4393 39.9712 41.8877 39.9712C41.3361 39.9712 40.8888 39.5239 40.8888 38.9723C40.8888 38.4207 41.3361 37.9734 41.8877 37.9734C42.4393 37.9734 42.8866 38.4206 42.8866 38.9723Z" fill="#EEB012"/>
</g>
<defs>
<clipPath id="clip0_7_1042">
<rect width="50" height="50" fill="white"/>
</clipPath>
</defs>
</svg>
