<svg width="50" height="50" viewBox="0 0 50 50" fill="none" xmlns="http://www.w3.org/2000/svg">
<g id="target 1" clip-path="url(#clip0_1_1713)">
<g id="Group">
<g id="Group_2">
<path id="Vector" d="M46.9226 23.5352C46.1982 12.5843 37.4157 3.80176 26.4648 3.07734V0H23.5351V3.07734C12.5842 3.80176 3.8017 12.5843 3.07728 23.5352H-6.10352e-05V26.4648H3.07728C3.8017 37.4157 12.5842 46.1982 23.5351 46.9227V50H26.4648V46.9227C37.4157 46.1982 46.1982 37.4157 46.9226 26.4648H49.9999V23.5352H46.9226ZM23.5351 6.01279V11.8982C17.4336 12.5759 12.5758 17.4337 11.8982 23.5352H6.01273C6.72621 14.2001 14.2 6.72627 23.5351 6.01279ZM23.5351 43.9872C14.2 43.2737 6.72621 35.7999 6.01273 26.4648H11.8982C12.5758 32.5663 17.4336 37.4241 23.5351 38.1018V43.9872ZM23.5351 32.3242V35.1488C19.0511 34.5046 15.4953 30.9488 14.8511 26.4648H17.6757V23.5352H14.8511C15.4953 19.0512 19.0511 15.4954 23.5351 14.8512V17.6758H26.4648V14.8512C30.9488 15.4954 34.5045 19.0512 35.1488 23.5352H32.3242V26.4648H35.1488C34.5045 30.9488 30.9488 34.5046 26.4648 35.1488V32.3242H23.5351ZM26.4648 43.9872V38.1018C32.5662 37.4241 37.4241 32.5662 38.1017 26.4648H43.9871C43.2737 35.7999 35.7998 43.2737 26.4648 43.9872ZM38.1017 23.5352C37.4241 17.4337 32.5662 12.5759 26.4648 11.8982V6.01279C35.7998 6.72627 43.2737 14.2001 43.9871 23.5352H38.1017Z" fill="#F74F22"/>
</g>
</g>
<g id="Group_3">
<g id="Group_4">
<path id="Vector_2" d="M24.9999 20.6055C22.5768 20.6055 20.6054 22.5769 20.6054 25C20.6054 27.4231 22.5768 29.3945 24.9999 29.3945C27.4231 29.3945 29.3945 27.4231 29.3945 25C29.3945 22.5769 27.4231 20.6055 24.9999 20.6055ZM24.9999 26.4648C24.1922 26.4648 23.5351 25.8077 23.5351 25C23.5351 24.1923 24.1922 23.5352 24.9999 23.5352C25.8077 23.5352 26.4648 24.1923 26.4648 25C26.4648 25.8077 25.8077 26.4648 24.9999 26.4648Z" fill="#F74F22"/>
</g>
</g>
</g>
<defs>
<clipPath id="clip0_1_1713">
<rect width="50" height="50" fill="white"/>
</clipPath>
</defs>
</svg>
