<svg width="50" height="50" viewBox="0 0 50 50" fill="none" xmlns="http://www.w3.org/2000/svg">
<g id="tiger 1" clip-path="url(#clip0_1_1695)">
<g id="Group">
<g id="Group_2">
<path id="Vector" d="M2.19949 30.54C2.65042 29.7509 3.15772 29.0181 3.72139 28.3981C2.93226 31.2728 2.59406 34.2038 2.59406 37.1913C2.59406 38.4313 4.34142 38.9386 4.96145 37.8113C5.29965 37.2476 5.63785 36.684 6.03242 36.0639C6.03242 39.1077 6.65245 42.0952 7.72342 45.0262C8.11798 46.0972 9.80898 46.3227 10.0908 45.0262C10.3726 43.6171 10.8799 42.2643 11.5563 40.9678C12.74 41.9261 13.9801 42.9407 15.3329 43.5607C15.6147 43.6734 15.8402 43.7298 16.0657 43.6734C16.3475 43.7298 16.6293 43.7298 16.9675 43.6171C17.1366 43.5043 17.3621 43.448 17.5312 43.3352C18.3767 44.9135 21.4769 46.379 22.4351 46.6609C26.3808 47.7882 29.9882 46.3227 32.8629 43.6171C32.8629 43.6171 32.8629 43.5607 32.9193 43.5607C32.9757 43.5607 33.032 43.6171 33.032 43.6171C33.3702 43.7862 33.6521 43.7862 33.9339 43.6734C34.1594 43.6734 34.4412 43.6734 34.6667 43.5607C36.0195 42.8843 37.2595 41.9261 38.4432 40.9678C39.0633 42.2643 39.5706 43.6171 39.9088 45.0262C40.1906 46.3227 41.8816 46.0972 42.2761 45.0262C43.3471 42.0952 43.9108 39.1077 43.9671 36.0639C44.3053 36.6276 44.6999 37.1913 45.0381 37.8113C45.6581 38.9386 47.4055 38.4313 47.4055 37.1913C47.4619 34.2038 47.0673 31.2728 46.2782 28.4544C46.8418 29.0745 47.3491 29.8072 47.8001 30.54C48.3637 31.4982 50.0547 31.16 49.9984 29.92C49.7165 25.0161 48.1383 19.2667 44.1926 16.1102C44.3054 15.9974 44.3617 15.8847 44.4744 15.7156C46.1091 12.3336 48.0819 5.5696 43.629 3.42767C41.0925 2.24397 36.3577 3.3713 34.4412 5.9078C31.8483 4.27317 29.0864 3.31494 25.8171 3.2022C21.7587 3.08947 17.7003 3.93497 14.2056 5.9078C12.7964 4.7241 11.3872 3.59677 9.41442 3.31494C7.32885 3.0331 5.35602 3.82223 4.17232 5.62597C3.04499 7.31696 2.76316 9.51526 3.21409 11.4881C3.55229 13.01 4.28506 15.1519 5.58149 16.3356C2.08676 19.774 0.226659 25.2979 0.00119291 29.92C-0.0551737 31.16 1.63582 31.611 2.19949 30.54ZM23.7315 44.068C22.2096 43.7862 20.8568 43.1098 19.6168 42.2643C20.5186 41.757 21.3641 41.1933 22.266 40.686C23.1679 40.1787 24.2388 39.615 25.028 38.8823C25.7607 39.5023 26.719 40.0096 27.5081 40.5169C28.41 41.0242 29.2555 41.5879 30.1573 42.1515C28.2972 43.6171 26.1553 44.5189 23.7315 44.068ZM3.49592 22.6487C4.73599 19.6049 6.99065 17.2939 8.62528 14.4755C8.73802 14.3064 8.56892 14.1937 8.39982 14.2501C7.94889 14.4755 7.49795 14.7574 7.04702 15.0956C6.82155 14.1937 6.37062 13.2918 6.08879 12.4463C5.75059 11.2063 5.52512 9.7971 5.86332 8.55703C6.31425 6.9224 7.49795 5.9078 9.24532 6.18963C10.8236 6.47147 11.8945 7.7679 13.0782 8.72613C13.5855 9.1207 14.2619 9.2898 14.8256 8.9516C17.7003 7.20423 20.8005 6.35873 24.1261 6.18963V7.0915C22.7733 6.86603 21.2514 7.5988 20.1804 8.2752C19.7295 8.6134 18.9404 9.06433 18.884 9.74073C18.884 10.0789 19.1095 10.4735 19.504 10.4735C20.0677 10.5299 20.8568 10.1353 21.4769 9.90983C21.9278 9.74073 22.3224 9.51526 22.7733 9.40253C23.2806 9.2898 23.7315 9.34616 24.2388 9.34616C24.2952 10.0789 24.3516 10.7553 24.3516 11.4881C23.3933 11.3754 22.3224 11.6572 21.4205 12.0518C20.3495 12.5027 19.3913 13.01 19.2222 14.2501C19.1658 14.701 19.7859 14.9828 20.1241 14.7574C20.6877 14.3628 21.646 14.2501 22.3224 14.081C22.9988 13.9119 23.6752 13.9119 24.3516 13.9119C24.3516 15.0392 24.3516 16.1665 24.7461 17.1811C24.9152 17.5757 25.4225 17.6884 25.648 17.2939C26.2117 16.392 26.3808 15.2083 26.4935 14.081C26.6062 14.081 26.6626 14.1373 26.7753 14.1373C27.5081 14.1937 28.2409 14.3064 28.9173 14.5319C29.5373 14.7574 30.0446 15.1519 30.6083 15.4338C31.3974 15.8283 32.0738 15.0392 31.7356 14.3064C31.0028 12.6718 28.6354 12.1645 27.0572 11.8827C26.8881 11.8263 26.7753 11.8263 26.6626 11.8827V11.8263C26.719 11.2063 26.8317 10.5862 26.8881 9.9662H26.9444C27.7336 9.74073 28.2972 9.74073 29.0864 10.1353C29.65 10.4171 30.2137 10.9244 30.8337 10.699C31.0592 10.6426 31.1719 10.4171 31.2283 10.1917C31.341 9.34616 30.2137 8.55703 29.5937 8.16246C28.8609 7.71153 27.959 7.37333 27.0572 7.2606C27.0572 6.9224 27.0572 6.5842 27.0572 6.30237C29.8191 6.64057 32.1865 7.7679 34.4976 9.57163C35.9631 10.699 38.0487 8.66976 36.5831 7.48606C36.5268 7.4297 36.414 7.37333 36.3577 7.31696C37.9923 6.4151 39.6833 5.28777 41.6561 5.62597C45.1508 6.30237 42.8398 12.3336 41.8252 14.2501C41.3179 15.2083 41.9943 16.1665 42.7835 16.392C44.249 18.5903 45.94 20.5631 46.8418 23.0433C47.2364 24.2269 47.4619 25.2979 47.5746 26.4816C46.7291 25.6925 45.7145 25.0724 44.6436 24.5651C43.8544 24.1706 42.6707 24.847 43.0089 25.8052C43.8544 28.1726 44.3617 30.5964 44.5872 33.0765C44.1926 32.6256 43.798 32.231 43.4035 31.8364C42.8962 31.3291 42.0507 31.8364 42.2198 32.5128V32.5692C42.1071 35.3312 41.7125 38.0931 41.0361 40.7424C40.6415 39.9532 40.1342 39.1641 39.5142 38.4877C39.1196 38.0368 38.3869 38.1495 37.9923 38.4877C36.6395 39.6714 35.0049 40.3478 33.483 41.2497C31.8483 40.1223 30.101 39.1641 28.3536 38.2059C27.5645 37.7549 26.6062 37.4731 26.2117 36.7403C26.268 36.3458 26.268 35.8948 26.1553 35.5003C26.4371 34.6548 27.3954 34.2602 28.1281 33.6965C28.8045 33.1892 28.0718 32.1183 27.339 32.3437C26.4935 32.5692 25.648 33.0765 24.9716 33.6965C24.2952 33.0765 23.3933 32.5692 22.6042 32.3437C21.8714 32.1183 21.1387 33.1892 21.8151 33.6965C22.3787 34.1475 23.5624 34.6548 23.8443 35.2748C23.6752 35.7257 23.6188 36.233 23.7315 36.7967C23.2806 37.4167 22.266 37.8113 21.5896 38.2059C19.8986 39.1641 18.0949 40.1223 16.4602 41.2497C14.9383 40.3478 13.3601 39.6714 11.9509 38.4877C11.5 38.1495 10.8236 38.0368 10.429 38.4877C9.80898 39.2205 9.30168 39.9532 8.90712 40.7424C8.17435 38.0931 7.83615 35.3312 7.72342 32.5692V32.5128C7.89252 31.8364 7.04702 31.2728 6.53972 31.8364C6.14515 32.231 5.75059 32.6819 5.35602 33.0765C5.58149 30.5964 6.08879 28.1726 6.93429 25.8052C7.27249 24.847 6.08879 24.1706 5.29965 24.5651C4.28506 25.0724 3.32682 25.6925 2.53769 26.4252C2.65042 25.1852 2.98862 23.9451 3.49592 22.6487Z" fill="#F74F22"/>
<path id="Vector_2" d="M10.5417 31.4419C10.7672 31.1037 11.049 30.7091 11.2745 30.3709C11.5 32.0619 12.0073 33.6402 12.6273 35.2748C12.9655 36.064 14.0365 36.3458 14.5438 35.5003C15.6147 33.7529 16.573 32.0056 17.4185 30.1455C17.9821 28.849 16.0657 27.6653 15.4456 29.0181C14.9383 30.2018 14.3747 31.3855 13.7546 32.5129C13.2473 30.9346 12.9655 29.3 12.9091 27.609C12.8528 26.6507 11.6127 26.3125 11.1054 27.1017C10.8799 27.4399 10.6545 27.7781 10.429 28.1163C10.429 27.158 10.429 26.1998 10.5417 25.2416C10.7108 23.3815 11.3872 21.4086 11.1054 19.6049C11.049 19.2667 10.6545 18.9849 10.3726 19.3231C9.30167 20.7322 9.0762 22.5923 8.85073 24.3397C8.5689 26.5944 8.51253 28.7927 8.738 31.0473C8.9071 31.8928 10.0344 32.231 10.5417 31.4419Z" fill="#F74F22"/>
<path id="Vector_3" d="M32.2993 31.3855C33.1448 33.2456 34.103 35.0494 35.174 36.7404C35.6813 37.5859 36.7522 37.304 37.0904 36.5149C37.7668 34.9366 38.2178 33.302 38.4432 31.611C38.6687 31.9492 38.9505 32.3438 39.176 32.682C39.6833 33.4711 40.8106 33.1329 40.9234 32.231C41.0925 29.9764 41.0925 27.7781 40.8106 25.5234C40.5852 23.776 40.4161 21.9159 39.2887 20.5068C39.0069 20.1686 38.6123 20.5068 38.556 20.7886C38.3305 22.6487 39.0069 24.6215 39.1196 26.4253C39.176 27.3835 39.2324 28.3417 39.2324 29.3C39.0069 28.9618 38.7814 28.6236 38.556 28.2854C38.0487 27.4962 36.8086 27.7781 36.7522 28.7927C36.6959 30.4837 36.414 32.1183 35.9067 33.6966C35.2867 32.5692 34.723 31.3855 34.2157 30.2018C33.6521 28.9054 31.7356 30.0327 32.2993 31.3855Z" fill="#F74F22"/>
<path id="Vector_4" d="M14.3747 23.6069C15.5584 24.3397 17.6439 25.1852 18.884 24.1706C19.1095 24.0015 19.1658 23.6633 19.1095 23.3814C18.9404 22.7614 18.3203 22.2541 17.7567 21.8595C17.193 21.465 16.6293 21.0704 16.0657 20.6758C15.3329 20.1685 14.2056 20.5631 13.7546 21.2959C13.3037 22.085 13.5855 23.156 14.3747 23.6069Z" fill="#F74F22"/>
<path id="Vector_5" d="M34.8358 23.6069C35.6249 23.156 35.9067 22.085 35.4558 21.2959C35.0049 20.5631 33.8775 20.1685 33.1448 20.6758C32.5811 21.0704 32.0174 21.465 31.4538 21.8595C30.8901 22.2541 30.3264 22.705 30.101 23.3814C30.0446 23.6069 30.101 24.0015 30.3264 24.1706C31.5665 25.1852 33.5957 24.3397 34.8358 23.6069Z" fill="#F74F22"/>
</g>
</g>
</g>
<defs>
<clipPath id="clip0_1_1695">
<rect width="50" height="50" fill="white"/>
</clipPath>
</defs>
</svg>
