<svg width="45" height="45" viewBox="0 0 45 45" fill="none" xmlns="http://www.w3.org/2000/svg">
<g clip-path="url(#clip0_7_2083)">
<path d="M35.1562 14.7656C37.8703 14.7656 40.0781 12.5571 40.0781 9.84375C40.0781 7.13039 37.8703 4.92188 35.1562 4.92188C32.4422 4.92188 30.2344 7.13039 30.2344 9.84375C30.2344 12.5571 32.4422 14.7656 35.1562 14.7656ZM35.1562 6.32812C37.0948 6.32812 38.6719 7.90523 38.6719 9.84375C38.6719 11.7823 37.0948 13.3594 35.1562 13.3594C33.2177 13.3594 31.6406 11.7823 31.6406 9.84375C31.6406 7.90523 33.2177 6.32812 35.1562 6.32812Z" fill="white"/>
<path d="M35.8594 0.703125H34.4531V3.51562H35.8594V0.703125Z" fill="white"/>
<path d="M29.1886 2.88221L28.1943 3.87671L30.1833 5.86515L31.1776 4.87065L29.1886 2.88221Z" fill="white"/>
<path d="M28.8281 9.14062H26.0156V10.5469H28.8281V9.14062Z" fill="white"/>
<path d="M30.184 13.8212L28.1953 15.8099L29.1897 16.8043L31.1784 14.8156L30.184 13.8212Z" fill="white"/>
<path d="M35.8594 16.1719H34.4531V18.9844H35.8594V16.1719Z" fill="white"/>
<path d="M40.1272 13.8214L39.1328 14.8158L41.1215 16.8045L42.1159 15.8102L40.1272 13.8214Z" fill="white"/>
<path d="M44.2969 9.14062H41.4844V10.5469H44.2969V9.14062Z" fill="white"/>
<path d="M41.1225 2.8836L39.1338 4.87231L40.1281 5.86667L42.1169 3.87796L41.1225 2.8836Z" fill="white"/>
<path d="M29.861 34.5291C31.2131 33.9279 32.2777 32.8936 32.9527 31.6406H40.7812C42.7198 31.6406 44.2969 30.0635 44.2969 28.125C44.2969 26.1865 42.7198 24.6094 40.7812 24.6094C40.7602 24.6094 40.7391 24.6122 40.718 24.6129C40.3833 22.6188 38.6501 21.0938 36.5625 21.0938C35.5071 21.0938 34.5178 21.4819 33.75 22.1801C32.9822 21.4819 31.9929 21.0938 30.9375 21.0938C30.6541 21.0938 30.3701 21.1219 30.1282 21.1718L30.0691 21.1809L26.7188 16.3427L20.8519 24.8168C20.0904 25.9172 19.6875 27.206 19.6875 28.5448C19.6875 31.1309 21.214 33.48 23.5765 34.5298L26.0156 35.6133V39.342C25.5902 39.5599 25.1719 39.7955 24.7704 40.0627L24.0314 40.5555C21.4608 38.4448 18.2194 37.2656 14.8451 37.2656C14.104 37.2656 13.3755 37.338 12.6562 37.4463V31.3235L15.8224 29.3084C18.6827 27.4887 20.3906 24.3773 20.3906 20.9869C20.3906 19.0814 19.8436 17.228 18.8121 15.6347L16.0418 11.25H18.2812C20.2198 11.25 21.7969 9.67289 21.7969 7.73438C21.7969 5.79586 20.2198 4.21875 18.2812 4.21875C18.2602 4.21875 18.2391 4.22156 18.218 4.22227C17.8833 2.2282 16.1501 0.703125 14.0625 0.703125C13.0071 0.703125 12.0178 1.09125 11.25 1.78945C10.4822 1.09125 9.49289 0.703125 8.4375 0.703125C6.34992 0.703125 4.61672 2.2282 4.28203 4.22227C4.26094 4.22156 4.23984 4.21875 4.21875 4.21875C2.28023 4.21875 0.703125 5.79586 0.703125 7.73438C0.703125 9.67289 2.28023 11.25 4.21875 11.25H7.93125L5.09836 15.6284C4.06266 17.228 3.51562 19.0814 3.51562 20.9869C3.51562 24.3773 5.22352 27.4887 8.08383 29.3091L11.25 31.3235V37.7304C8.76094 38.3646 6.47367 39.6408 4.61039 41.5048L3.22453 42.8906H0.703125V44.2969H44.2969V42.8906H41.7755L40.5063 41.6215C38.1509 39.266 35.0191 37.9688 31.6877 37.9688C30.2196 37.9688 28.7803 38.231 27.4219 38.726V35.6133L29.861 34.5291ZM8.83898 28.1222C6.38648 26.5612 4.92188 23.8936 4.92188 20.9869C4.92188 19.3528 5.39086 17.7638 6.27891 16.392L11.9623 7.60922L12.7744 8.82773L13.9444 8.04797L11.944 5.04773L8.84109 9.84375H4.21875C3.05578 9.84375 2.10938 8.89734 2.10938 7.73438C2.10938 6.57141 3.05578 5.625 4.21875 5.625C4.82344 5.625 5.4007 5.88516 5.80078 6.33938L6.85547 5.40984C6.52148 5.03156 6.11437 4.73344 5.66437 4.53094C5.85703 3.16547 7.0207 2.10938 8.4375 2.10938C9.32555 2.10938 10.1454 2.52562 10.6861 3.25195L11.25 4.00852L11.8139 3.25195C12.3546 2.52562 13.1745 2.10938 14.0625 2.10938C15.4793 2.10938 16.643 3.16547 16.8356 4.53023C16.3856 4.73344 15.9785 5.03086 15.6445 5.40914L16.6992 6.33867C17.0993 5.88516 17.6766 5.625 18.2812 5.625C19.4442 5.625 20.3906 6.57141 20.3906 7.73438C20.3906 8.89734 19.4442 9.84375 18.2812 9.84375H13.4895L17.6273 16.3913C18.5147 17.763 18.9844 19.3521 18.9844 20.9862C18.9844 23.8936 17.5198 26.5612 15.0673 28.1215L12.6562 29.6564V26.3067L15.9659 22.9971L14.9716 22.0029L12.6562 24.3183V19.9786L15.9659 16.669L14.9716 15.6748L12.6562 17.9902V10.5469H11.25V17.9902L8.93461 15.6748L7.94039 16.669L11.25 19.9786V24.3183L8.93461 22.0029L7.94039 22.9971L11.25 26.3067V29.6564L8.83898 28.1222ZM5.60461 42.499C8.07258 40.0317 11.3541 38.6719 14.8451 38.6719C18.4992 38.6719 21.9713 40.2124 24.442 42.8906H5.21297L5.60461 42.499ZM39.5121 42.6157L39.787 42.8906H26.3341L25.7379 42.2086C25.5333 41.9745 25.3195 41.7509 25.1023 41.5322L25.5509 41.2334C27.3748 40.0177 29.4968 39.375 31.6877 39.375C34.6437 39.375 37.4217 40.526 39.5121 42.6157ZM33.1861 23.6426L33.75 24.3991L34.3139 23.6426C34.8546 22.9163 35.6745 22.5 36.5625 22.5C37.9793 22.5 39.143 23.5561 39.3356 24.9209C38.8856 25.1241 38.4785 25.4215 38.1445 25.7998L39.1992 26.7293C39.5993 26.2758 40.1766 26.0156 40.7812 26.0156C41.9442 26.0156 42.8906 26.962 42.8906 28.125C42.8906 29.288 41.9442 30.2344 40.7812 30.2344H33.5166C33.6628 29.6902 33.75 29.1248 33.75 28.5448C33.75 27.2067 33.3471 25.9179 32.5856 24.8168L30.9874 22.5091C31.8326 22.5295 32.6573 22.9324 33.1861 23.6426ZM24.1481 33.2437C22.2926 32.4197 21.0938 30.5747 21.0938 28.5448C21.0938 27.4943 21.4102 26.4811 22.0078 25.6177L26.7188 18.8135L31.4297 25.6177C32.028 26.4818 32.3438 27.4943 32.3438 28.5448C32.3438 30.5754 31.1449 32.4204 29.2894 33.2445L27.4219 34.0741V31.2286L30.7315 27.919L29.7373 26.9248L27.4219 29.2402V21.7969H26.0156V29.2402L23.7002 26.9248L22.706 27.919L26.0156 31.2286V34.0741L24.1481 33.2437Z" fill="white"/>
</g>
<defs>
<clipPath id="clip0_7_2083">
<rect width="45" height="45" fill="white"/>
</clipPath>
</defs>
</svg>
