<svg width="50" height="50" viewBox="0 0 50 50" fill="none" xmlns="http://www.w3.org/2000/svg">
<g id="wind 1">
<g id="Icon">
<path id="Vector" fill-rule="evenodd" clip-rule="evenodd" d="M5.54347 30.425C5.13513 31.1855 4.18722 31.473 3.42888 31.0646C2.66847 30.6563 2.38097 29.7084 2.7893 28.95C2.7893 28.95 5.3518 23.9584 12.4997 23.9584C15.8872 23.9584 18.5997 25.623 21.1206 27.3584C23.1122 28.7313 24.9247 30.2084 27.0831 30.2084C29.6018 30.2084 31.0872 28.8584 32.4143 27.8334C33.7539 26.8 35.0122 26.0417 36.4581 26.0417C37.3206 26.0417 38.0206 26.7417 38.0206 27.6042C38.0206 28.4667 37.3206 29.1667 36.4581 29.1667C36.0518 29.1667 35.6976 29.3521 35.3351 29.5813C34.7456 29.948 34.1601 30.4438 33.5101 30.9355C31.8956 32.1521 29.9581 33.3334 27.0831 33.3334C24.8143 33.3334 22.7664 32.2521 20.7081 30.8667C18.2768 29.2313 15.8268 27.0834 12.4997 27.0834C7.44763 27.0834 5.54347 30.425 5.54347 30.425Z" fill="white"/>
<path id="Vector_2" fill-rule="evenodd" clip-rule="evenodd" d="M6.58546 14.8C6.17713 15.5605 5.22921 15.848 4.47088 15.4396C3.71046 15.0313 3.42296 14.0834 3.83129 13.325C3.83129 13.325 6.39379 8.33337 13.5417 8.33337C16.9292 8.33337 19.6417 9.99796 22.1625 11.7334C24.1542 13.1063 25.9667 14.5834 28.125 14.5834C30.6438 14.5834 32.1292 13.2334 33.4563 12.2084C34.7959 11.175 36.0542 10.4167 37.5 10.4167C38.3625 10.4167 39.0625 11.1167 39.0625 11.9792C39.0625 12.8417 38.3625 13.5417 37.5 13.5417C37.0938 13.5417 36.7396 13.7271 36.3771 13.9563C35.7875 14.323 35.2021 14.8188 34.5521 15.3105C32.9375 16.5271 31 17.7084 28.125 17.7084C25.8563 17.7084 23.8084 16.6271 21.75 15.2417C19.3188 13.6063 16.8688 11.4584 13.5417 11.4584C8.48963 11.4584 6.58546 14.8 6.58546 14.8Z" fill="white"/>
<path id="Vector_3" fill-rule="evenodd" clip-rule="evenodd" d="M17.3723 20.0083C16.964 19.25 17.2515 18.3021 18.0119 17.8937C18.7702 17.4854 19.7181 17.7729 20.1265 18.5333C20.1265 18.5333 22.0306 21.875 27.0827 21.875C30.4098 21.875 32.8598 19.7271 35.2911 18.0917C37.3494 16.7062 39.3973 15.625 41.6661 15.625C43.7244 15.625 45.3077 16.2313 46.6348 17.0271C47.3744 17.4688 47.6161 18.4292 47.1744 19.1688C46.7306 19.9104 45.7702 20.1521 45.0306 19.7083C44.1306 19.1708 43.0619 18.75 41.6661 18.75C39.5077 18.75 37.6952 20.2271 35.7036 21.6C33.1827 23.3354 30.4702 25 27.0827 25C19.9348 25 17.3723 20.0083 17.3723 20.0083Z" fill="white"/>
<path id="Vector_4" fill-rule="evenodd" clip-rule="evenodd" d="M17.3723 36.6751C16.964 35.9167 17.2515 34.9688 18.0119 34.5605C18.7702 34.1522 19.7181 34.4397 20.1265 35.2001C20.1265 35.2001 22.0306 38.5417 27.0827 38.5417C30.4098 38.5417 32.8598 36.3938 35.2911 34.7584C37.3494 33.373 39.3973 32.2917 41.6661 32.2917C43.7244 32.2917 45.3077 32.898 46.6348 33.6938C47.3744 34.1355 47.6161 35.0959 47.1744 35.8355C46.7306 36.5772 45.7702 36.8188 45.0306 36.3751C44.1306 35.8376 43.0619 35.4167 41.6661 35.4167C39.5077 35.4167 37.6952 36.8938 35.7036 38.2667C33.1827 40.0022 30.4702 41.6667 27.0827 41.6667C19.9348 41.6667 17.3723 36.6751 17.3723 36.6751Z" fill="white"/>
</g>
</g>
</svg>
