<svg width="50" height="50" viewBox="0 0 50 50" fill="none" xmlns="http://www.w3.org/2000/svg">
<g id="sustainability 1">
<path id="Vector" d="M28.2763 45.7805C28.1948 45.7805 28.1163 45.777 28.0408 45.7705C25.5258 45.555 20.2602 43.635 17.2327 42.062C16.4764 41.6729 15.6455 41.4504 14.7959 41.4096C13.9463 41.3688 13.0979 41.5107 12.3077 41.8255C12.111 41.9003 11.8927 41.8945 11.7002 41.8094C11.5077 41.7243 11.3565 41.5668 11.2793 41.371C11.2022 41.1751 11.2053 40.9568 11.288 40.7633C11.3707 40.5697 11.5264 40.4166 11.7212 40.337C12.7242 39.9378 13.8012 39.7585 14.8794 39.8112C15.9576 39.8639 17.012 40.1474 17.9712 40.6425C21.1212 42.2795 26.0822 43.997 28.1777 44.1765C28.6903 44.22 30.4592 43.9845 35.8142 40.857C38.9337 39.0345 42.1182 36.891 43.3827 35.9505C43.6763 35.7325 44.0218 35.292 44.0658 35.1225C44.2453 34.426 44.2453 34.146 44.0658 33.8225C43.7158 33.1965 42.8158 32.915 42.1373 33.2225L32.2168 37.705C32.0234 37.7924 31.8033 37.7994 31.6048 37.7245C31.4063 37.6496 31.2456 37.4989 31.1582 37.3055C31.0709 37.1122 31.0639 36.8921 31.1388 36.6936C31.2137 36.495 31.3644 36.3344 31.5577 36.247L41.4758 31.762C42.9158 31.112 44.7033 31.6855 45.4613 33.042C45.9613 33.942 45.8112 34.76 45.6143 35.5225C45.4367 36.21 44.7368 36.9375 44.3372 37.2345C43.0427 38.197 39.7932 40.3845 36.6207 42.2385C34.7708 43.318 33.1602 44.1645 31.8297 44.7545C30.2772 45.443 29.1103 45.7805 28.2763 45.7805Z" fill="white"/>
<path id="Vector_2" d="M29.4712 39.5745C29.0963 39.574 28.7242 39.5092 28.3712 39.383L23.3667 37.6C23.1668 37.5288 23.0034 37.3811 22.9123 37.1894C22.8213 36.9977 22.8102 36.7777 22.8814 36.5778C22.9526 36.3779 23.1004 36.2145 23.2921 36.1235C23.4838 36.0325 23.7038 36.0213 23.9037 36.0925L28.9062 37.874C29.2068 37.9844 29.5334 38.0033 29.8448 37.9285C30.1562 37.8537 30.4385 37.6884 30.6562 37.4535C30.6827 37.4245 30.7062 37.399 30.7257 37.374C31.0667 36.974 31.2087 36.4975 31.1257 36.038C31.0387 35.564 30.7257 35.156 30.2407 34.888C28.6237 33.9965 26.4952 33.238 23.9137 32.629C21.9105 32.1598 19.8781 31.8257 17.8302 31.629C17.3382 31.5835 16.9052 31.5565 16.6707 31.5565C16.2932 31.5565 15.1407 31.7065 11.6632 32.714C11.5623 32.7433 11.4566 32.7523 11.3522 32.7407C11.2477 32.7291 11.1466 32.697 11.0546 32.6463C10.8688 32.5439 10.7312 32.3719 10.6722 32.168C10.6132 31.9642 10.6376 31.7453 10.7399 31.5595C10.8423 31.3736 11.0144 31.2361 11.2182 31.177C15.4332 29.9565 16.3647 29.9565 16.6682 29.9565C16.9572 29.9565 17.4207 29.9845 17.9732 30.0355C20.0955 30.2391 22.2017 30.5849 24.2777 31.0705C27.0012 31.7115 29.2662 32.524 31.0107 33.486C31.9107 33.9815 32.5237 34.805 32.6967 35.7465C32.8672 36.6735 32.5927 37.643 31.9442 38.4075C31.9122 38.445 31.8752 38.4885 31.8327 38.534C31.5331 38.8622 31.1683 39.1242 30.7617 39.3033C30.355 39.4825 29.9155 39.5749 29.4712 39.5745Z" fill="white"/>
<path id="Vector_3" d="M7.37308 45.072C6.75223 45.0709 6.15504 44.8337 5.70259 44.4086C5.25014 43.9834 4.9763 43.4021 4.93658 42.7825L4.20508 31.1765C4.18481 30.8564 4.22779 30.5355 4.33159 30.232C4.43538 29.9285 4.59795 29.6484 4.81 29.4078C5.02205 29.1671 5.27943 28.9706 5.56745 28.8294C5.85546 28.6883 6.16846 28.6052 6.48858 28.585L9.56908 28.3905C10.2156 28.3505 10.8517 28.5687 11.3376 28.997C11.8235 29.4254 12.1197 30.0291 12.1611 30.6755L12.8926 42.281C12.9128 42.6012 12.8697 42.9221 12.7659 43.2256C12.662 43.5291 12.4994 43.8092 12.2873 44.0498C12.0752 44.2905 11.8178 44.487 11.5298 44.6282C11.2417 44.7693 10.9287 44.8524 10.6086 44.8725L7.52858 45.067C7.47658 45.0705 7.42458 45.072 7.37308 45.072ZM9.72308 29.986H9.66958L6.58958 30.18C6.47886 30.1868 6.37057 30.2153 6.27091 30.264C6.17126 30.3127 6.0822 30.3806 6.00884 30.4638C5.93549 30.547 5.87929 30.6439 5.84346 30.7489C5.80764 30.8538 5.79289 30.9648 5.80008 31.0755L6.53158 42.682C6.54585 42.905 6.648 43.1132 6.8156 43.2609C6.98321 43.4087 7.20258 43.4839 7.42558 43.47L10.5056 43.2755C10.7285 43.2615 10.9368 43.1595 11.0846 42.992C11.2324 42.8244 11.3075 42.605 11.2936 42.382L10.5641 30.776C10.5504 30.5622 10.4558 30.3616 10.2997 30.2149C10.1435 30.0682 9.93735 29.9864 9.72308 29.986Z" fill="white"/>
<path id="Vector_4" d="M21.7118 21.373C19.6688 21.373 17.8478 20.633 16.3798 19.192C12.2063 15.096 11.0388 5.51847 10.9908 5.11247C10.9769 4.99373 10.9897 4.87336 11.0284 4.76023C11.0671 4.6471 11.1306 4.54408 11.2144 4.45875C11.2981 4.37342 11.4 4.30794 11.5123 4.26714C11.6247 4.22634 11.7448 4.21125 11.8638 4.22297C12.2703 4.26297 21.8683 5.25197 26.0413 9.34797C27.8768 11.148 28.6263 13.5245 28.2088 16.2165C27.9013 18.197 27.0673 19.6505 27.0323 19.7115C26.9648 19.8275 26.8692 19.9246 26.7543 19.994C26.6943 20.0305 25.2578 20.8905 23.2848 21.233C22.7655 21.3248 22.2392 21.3716 21.7118 21.373ZM12.7298 5.94597C13.1433 8.48247 14.4738 15.08 17.4998 18.05C18.8303 19.356 20.3468 19.765 21.7223 19.765C23.5998 19.765 25.2158 19.004 25.7443 18.7255C26.1816 17.8428 26.4817 16.8986 26.6343 15.9255C26.9583 13.7545 26.3818 11.9255 24.9203 10.492C21.8943 7.51947 15.2738 6.31197 12.7298 5.94597Z" fill="white"/>
<path id="Vector_5" d="M28.0472 26.808C27.8364 26.808 27.634 26.7248 27.4842 26.5764C27.3344 26.4279 27.2492 26.2264 27.2472 26.0155C27.2182 22.919 25.8657 20.141 25.6572 19.731C24.1072 17.601 20.9952 13.792 17.3442 11.831C17.1591 11.7296 17.0216 11.5591 16.9616 11.3567C16.9017 11.1543 16.9242 10.9364 17.0242 10.7505C17.1242 10.5646 17.2936 10.4257 17.4956 10.3642C17.6975 10.3027 17.9156 10.3235 18.1022 10.422C22.0617 12.55 25.3692 16.609 26.9882 18.8395C27.0135 18.8745 27.0359 18.9115 27.0552 18.95C27.1902 19.21 28.8142 22.4095 28.8477 26C28.8487 26.1051 28.829 26.2093 28.7897 26.3067C28.7504 26.4042 28.6923 26.4929 28.6187 26.5679C28.5451 26.6429 28.4575 26.7027 28.3608 26.7438C28.2641 26.7849 28.1603 26.8065 28.0552 26.8075L28.0472 26.808Z" fill="white"/>
<path id="Vector_6" d="M32.7945 23.01C32.756 23.01 32.718 23.01 32.68 23.01C31.7005 22.9945 30.68 22.773 29.647 22.353C28.356 21.8285 27.0295 20.984 25.8115 19.911C25.6586 19.7691 25.5671 19.573 25.5567 19.3647C25.5462 19.1563 25.6175 18.9522 25.7555 18.7956C25.8934 18.6391 26.087 18.5427 26.295 18.5269C26.503 18.5111 26.709 18.5771 26.869 18.711C28.2755 19.9495 31.912 22.629 35.299 20.761C39.013 18.7145 42.0695 12.7185 43.149 10.387C40.599 10.0545 33.899 9.43696 30.1855 11.483C29.2585 11.994 28.523 12.678 28 13.516C27.8877 13.696 27.7084 13.824 27.5017 13.8719C27.295 13.9197 27.0777 13.8835 26.8977 13.7712C26.7177 13.6589 26.5897 13.4797 26.5418 13.273C26.494 13.0662 26.5302 12.849 26.6425 12.669C27.312 11.597 28.2425 10.726 29.413 10.082C34.536 7.25946 44.0455 8.88946 44.45 8.96046C44.5673 8.98145 44.6785 9.0284 44.7754 9.09788C44.8723 9.16736 44.9524 9.25762 45.0099 9.36205C45.0674 9.46649 45.1009 9.58245 45.1078 9.70148C45.1147 9.8205 45.095 9.93956 45.05 10.05C44.895 10.428 41.1935 19.3385 36.072 22.1605C35.0699 22.7189 33.9416 23.0113 32.7945 23.01Z" fill="white"/>
<path id="Vector_7" d="M26.3414 20.1095C26.1752 20.1096 26.013 20.0578 25.8775 19.9615C25.742 19.8652 25.6399 19.729 25.5853 19.572C25.5308 19.4149 25.5265 19.2448 25.5731 19.0852C25.6197 18.9256 25.7149 18.7845 25.8454 18.6815C28.2779 16.762 32.6004 14.1875 36.7729 13.25C36.9784 13.2077 37.1922 13.2477 37.3684 13.3615C37.5446 13.4754 37.669 13.6538 37.7149 13.8585C37.7608 14.0632 37.7245 14.2777 37.6138 14.4558C37.503 14.634 37.3268 14.7615 37.1229 14.811C33.4624 15.6335 29.3184 17.9785 26.8359 19.9375C26.6952 20.0489 26.5209 20.1095 26.3414 20.1095Z" fill="white"/>
<path id="Vector_8" d="M38.4148 34.825H38.3783C38.1677 34.8155 37.9693 34.7233 37.8263 34.5683C37.6834 34.4134 37.6074 34.2082 37.6148 33.9975V33.9915C37.6143 33.6109 37.5106 33.2374 37.3148 32.911C36.9257 32.238 36.7513 31.4623 36.8148 30.6875C36.8183 30.6375 36.8203 30.5875 36.8203 30.5375C36.8203 29.1975 35.5373 28.1075 33.9603 28.1075C33.7854 28.1077 33.6107 28.1212 33.4378 28.148C32.0878 28.361 30.6808 28.0545 29.4773 27.286C28.9644 26.9635 28.3697 26.7948 27.7638 26.8C27.2824 26.7987 26.8066 26.904 26.3708 27.1085C25.1001 27.723 23.6458 27.8407 22.2928 27.4385C21.9846 27.3462 21.6645 27.2995 21.3428 27.3C19.7658 27.3 18.4828 28.39 18.4828 29.73C18.4831 30.0046 18.5375 30.2765 18.6428 30.53C18.683 30.6271 18.7037 30.7311 18.7036 30.8362C18.7036 30.9413 18.6829 31.0453 18.6427 31.1424C18.6024 31.2394 18.5435 31.3276 18.4692 31.4019C18.3949 31.4762 18.3066 31.5351 18.2096 31.5753C18.1125 31.6155 18.0084 31.6361 17.9034 31.6361C17.7983 31.6361 17.6943 31.6154 17.5972 31.5751C17.5001 31.5349 17.412 31.4759 17.3377 31.4016C17.2634 31.3273 17.2045 31.2391 17.1643 31.142C16.9782 30.6939 16.8825 30.2133 16.8828 29.728C16.8828 27.506 18.8828 25.698 21.3428 25.698C21.8215 25.6973 22.2978 25.7669 22.7563 25.9045C23.7282 26.1915 24.7722 26.1052 25.6838 25.6625C26.3344 25.3564 27.0448 25.1985 27.7638 25.2C28.6746 25.195 29.5679 25.4509 30.3378 25.9375C31.2113 26.4955 32.2238 26.7195 33.1878 26.5675C33.4429 26.5277 33.7007 26.5076 33.9588 26.5075C36.4178 26.5075 38.4188 28.3155 38.4188 30.5375C38.4188 30.626 38.4153 30.715 38.4093 30.8035C38.3698 31.2548 38.4693 31.7074 38.6943 32.1005C39.033 32.6736 39.2126 33.3268 39.2143 33.9925V34.0625C39.2047 34.268 39.1162 34.4619 38.9673 34.6039C38.8184 34.7459 38.6206 34.8251 38.4148 34.825Z" fill="white"/>
</g>
</svg>
