<svg width="43" height="43" viewBox="0 0 43 43" fill="none" xmlns="http://www.w3.org/2000/svg">
<ellipse cx="21.1892" cy="21.312" rx="20.8309" ry="21.2908" fill="url(#paint0_linear_1_1688)" fill-opacity="0.04"/>
<path d="M31.0905 20.2439C31.0903 20.2437 31.0901 20.2434 31.0898 20.2431L27.0081 15.9497C26.7023 15.628 26.2077 15.6292 25.9034 15.9525C25.599 16.2757 25.6002 16.7984 25.906 17.1201L28.6464 20.0027H12.1031C11.6717 20.0027 11.322 20.3723 11.322 20.8283C11.322 21.2844 11.6717 21.654 12.1031 21.654H28.6464L25.906 24.5366C25.6002 24.8583 25.5991 25.381 25.9034 25.7042C26.2078 26.0275 26.7024 26.0286 27.0082 25.707L31.0899 21.4136C31.0901 21.4133 31.0903 21.413 31.0906 21.4128C31.3965 21.09 31.3955 20.5656 31.0905 20.2439Z" fill="#F74F22"/>
<defs>
<linearGradient id="paint0_linear_1_1688" x1="32.7011" y1="3.38294" x2="12.7666" y2="55.7649" gradientUnits="userSpaceOnUse">
<stop stop-color="#051A53"/>
<stop offset="1" stop-color="#051A53" stop-opacity="0"/>
</linearGradient>
</defs>
</svg>
