<svg width="34" height="34" viewBox="0 0 34 34" fill="none" xmlns="http://www.w3.org/2000/svg">
<g id="healthcare 1">
<g id="_x31_5093_-_Healthcare">
<g id="Group">
<path id="Vector" d="M31.5223 5.61063C31.3202 5.41034 31.0531 5.30401 30.7675 5.30463C30.1914 5.31143 29.7222 5.78557 29.7222 6.36172V13.3892C29.7222 14.4815 29.4242 15.5578 28.8604 16.5018C28.8456 16.5265 28.8295 16.5487 28.8116 16.5698C28.8042 16.5883 28.7949 16.6062 28.785 16.6242C28.7788 16.6353 28.772 16.6452 28.7665 16.6544C28.568 16.9648 28.3418 17.2578 28.0945 17.5267L24.2024 21.7408C24.1048 21.8459 23.9719 21.8997 23.8389 21.8997C23.719 21.8997 23.5985 21.8564 23.5033 21.768C23.303 21.5832 23.2906 21.2704 23.4755 21.0695L27.3675 16.8554C27.5691 16.6371 27.7539 16.3985 27.9171 16.1463C27.9257 16.1315 27.935 16.1166 27.9455 16.1018H27.9461C27.9567 16.0863 27.9672 16.0721 27.9795 16.0585C27.9857 16.0431 27.9925 16.0282 28.0005 16.0134C28.2015 15.6419 28.1304 15.1912 27.8237 14.892C27.4318 14.5106 26.7951 14.5087 26.4019 14.8883C26.3098 14.9829 24.7965 16.5395 23.5181 17.8537C22.5636 18.8354 21.7402 19.6823 21.7371 19.6854C20.162 21.3137 19.2935 23.5521 19.2935 25.9865V29.1164H25.8623C25.9562 27.4992 26.5979 25.9062 27.6191 24.7879L30.3255 21.8255C31.2998 20.7592 31.8364 19.3763 31.8364 17.9322V6.36172C31.8364 6.07736 31.7251 5.8103 31.5223 5.61063Z" fill="white"/>
<path id="Vector_2" d="M16.5603 30.7477C16.5405 30.6915 16.5312 30.6309 16.5337 30.5691V30.5684C16.4459 30.2538 16.1566 30.022 15.8142 30.022H6.61932C6.20761 30.022 5.87256 30.357 5.87256 30.7687V31.5155H16.5609V30.7687C16.5609 30.7619 16.5609 30.7551 16.5603 30.7483V30.7477Z" fill="white"/>
<path id="Vector_3" d="M27.3805 30.1055H18.2413C17.9211 30.1055 17.6466 30.2996 17.5403 30.5883V30.5889C17.5471 30.6482 17.5502 30.7076 17.5502 30.7688V31.5891H28.1273V30.8238C28.1273 30.4214 27.799 30.1055 27.3805 30.1055Z" fill="white"/>
<path id="Vector_4" d="M8.13274 29.0329H14.7621V25.9865C14.7621 23.6349 13.8497 21.3965 12.1936 19.6835C12.1911 19.681 12.099 19.5852 10.054 17.4512C8.8999 16.2464 7.69074 14.9853 7.59677 14.887C7.20361 14.5093 6.5675 14.5106 6.17619 14.8926C5.86957 15.1912 5.79848 15.6418 5.99939 16.0134C6.00743 16.0282 6.01423 16.043 6.02041 16.0585C6.03277 16.0721 6.04328 16.0863 6.05379 16.1018H6.05441C6.06492 16.1166 6.07419 16.1314 6.08285 16.1463C6.24605 16.3985 6.43088 16.6371 6.63241 16.8553L10.5245 21.0695C10.7093 21.2704 10.697 21.5832 10.4967 21.768C10.4015 21.8564 10.2809 21.8997 10.161 21.8997C10.0281 21.8997 9.89517 21.8459 9.7975 21.7408L5.90605 17.5267C5.65816 17.2578 5.4319 16.9647 5.23347 16.6544C5.22728 16.6451 5.2211 16.6352 5.21492 16.6241C5.20503 16.6062 5.19576 16.5883 5.18834 16.5697C5.17041 16.5487 5.15434 16.5258 5.1395 16.5017C4.57572 15.5578 4.27776 14.4815 4.27776 13.3892V6.36168C4.27776 5.78553 3.80856 5.31139 3.23179 5.30459C2.94805 5.30273 2.67976 5.4103 2.47761 5.61059C2.27485 5.81026 2.16357 6.07732 2.16357 6.36168V17.9322C2.16357 19.3763 2.70016 20.7591 3.67441 21.8255L6.38081 24.7878C7.38474 25.887 8.02146 27.4442 8.13274 29.0329Z" fill="white"/>
<path id="Vector_5" d="M13.8263 7.91271L14.8271 6.40125C14.9211 6.25969 15.0793 6.17438 15.2499 6.17994C15.4199 6.18365 15.5757 6.27391 15.6635 6.4198L17.0186 8.67431L18.8694 6.36787C18.9578 6.25784 19.0882 6.19107 19.2286 6.18365C19.3683 6.17685 19.5061 6.22878 19.6057 6.32893L21.182 7.91271H22.8907C23.821 6.53169 23.6498 4.6518 22.4579 3.45995C21.216 2.21802 19.2279 2.08449 17.8346 3.14962C17.6571 3.285 17.4111 3.285 17.2337 3.14962C16.6038 2.66805 15.8527 2.43191 15.1034 2.43191C14.1953 2.43191 13.2909 2.77933 12.6103 3.45995C11.4185 4.6518 11.2472 6.53169 12.1776 7.91271H13.8263Z" fill="white"/>
<path id="Vector_6" d="M21.9955 8.90179H20.9761C20.8444 8.90179 20.7183 8.84924 20.6256 8.7559L19.2946 7.41815L17.3461 9.84637C17.2522 9.96382 17.11 10.0312 16.9604 10.0312C16.9493 10.0312 16.9381 10.0312 16.927 10.0306C16.7657 10.0195 16.6198 9.93044 16.5363 9.79197L15.219 7.60052L14.5043 8.68048C14.4129 8.81833 14.2577 8.90179 14.092 8.90179H13.072L17.4784 13.3076C17.4963 13.3255 17.5149 13.344 17.5341 13.362C17.5532 13.344 17.5718 13.3255 17.5897 13.3076L21.9955 8.90179Z" fill="white"/>
<path id="Vector_7" d="M24.4182 8.90181C24.6915 8.90181 24.9128 8.6805 24.9128 8.40727C24.9128 8.13403 24.6915 7.91272 24.4182 7.91272H24.0281C23.8989 8.18101 23.7407 8.44003 23.554 8.68421C23.4965 8.75901 23.4378 8.83196 23.3772 8.90181H24.4182Z" fill="white"/>
<path id="Vector_8" d="M10.0763 8.90181H11.691C11.6304 8.83196 11.5717 8.75901 11.5142 8.68421C11.3275 8.44003 11.1693 8.18101 11.0401 7.91272H10.0763C9.8031 7.91272 9.58179 8.13403 9.58179 8.40727C9.58179 8.6805 9.8031 8.90181 10.0763 8.90181Z" fill="white"/>
</g>
</g>
</g>
</svg>
